<svg xmlns="http://www.w3.org/2000/svg" viewBox="0 0 18 17"><defs><style>.cls-1,.cls-2{fill:#999;}.cls-1{opacity:0.5;}</style></defs><title>ai</title><g id="Layer_2" data-name="Layer 2"><g id="icons"><g id="ai"><path class="cls-1" d="M1,7H1A0,0,0,0,1,1,7v7a0,0,0,0,1,0,0H1a1,1,0,0,1-1-1V8A1,1,0,0,1,1,7Z"/><path class="cls-1" d="M17,7h0a1,1,0,0,1,1,1v5a1,1,0,0,1-1,1h0a0,0,0,0,1,0,0V7A0,0,0,0,1,17,7Z"/><rect class="cls-1" x="5.5" y="13" width="1" height="2"/><rect class="cls-1" x="7.5" y="13" width="1" height="2"/><rect class="cls-1" x="9.5" y="13" width="1" height="2"/><rect class="cls-1" x="11.5" y="13" width="1" height="2"/><path class="cls-2" d="M14,5H9.5V3.93a2,2,0,1,0-1,0V5H4A2,2,0,0,0,2,7v8a2,2,0,0,0,2,2H14a2,2,0,0,0,2-2V7A2,2,0,0,0,14,5ZM8,2A1,1,0,1,1,9,3,1,1,0,0,1,8,2ZM6,7A2,2,0,1,1,4,9,2,2,0,0,1,6,7Zm7,8H5a1,1,0,0,1,0-2h8a1,1,0,0,1,0,2Zm-1-4a2,2,0,1,1,2-2A2,2,0,0,1,12,11Z"/></g></g></g></svg>