<svg xmlns="http://www.w3.org/2000/svg" viewBox="0 0 14.11 13.17"><defs><style>.cls-1{fill:#999;}</style></defs><title>art</title><g id="Layer_2" data-name="Layer 2"><g id="icons"><g id="art"><path class="cls-1" d="M5.53,8.58h0a1.4,1.4,0,0,1-.29-1.77,14.42,14.42,0,0,1,1.53-1.6c8.74-7.83,10-6.61,2.13,2.13A13.54,13.54,0,0,1,7.31,8.88,1.41,1.41,0,0,1,5.53,8.58Z"/><path class="cls-1" d="M3.4,8.63a1.93,1.93,0,0,0-1.32.52h0s-.1.08-.19.21a1.81,1.81,0,0,0-.19.29l-.09.14a4.26,4.26,0,0,0-.35.92,6.86,6.86,0,0,1-.47,1.72,2.18,2.18,0,0,1-.78.7s3.65.38,5-1.36A2,2,0,0,0,3.4,8.63Z"/></g></g></g></svg>