<svg xmlns="http://www.w3.org/2000/svg" viewBox="0 0 16 16"><defs><style>.cls-1{fill:#999;}</style></defs><title>baseball</title><g id="Layer_2" data-name="Layer 2"><g id="icons"><g id="baseball"><path class="cls-1" d="M13.85,2.56a8.92,8.92,0,0,0,0,10.88,8,8,0,0,0,0-10.88Z"/><path class="cls-1" d="M2.15,2.56a8,8,0,0,0,0,10.88A8.89,8.89,0,0,0,4,8,8.89,8.89,0,0,0,2.15,2.56Z"/><path class="cls-1" d="M11,8a10,10,0,0,1,2.12-6.14,8,8,0,0,0-10.24,0A10,10,0,0,1,5,8a10,10,0,0,1-2.12,6.14,8,8,0,0,0,10.24,0A10,10,0,0,1,11,8Z"/></g></g></g></svg>