<svg xmlns="http://www.w3.org/2000/svg" viewBox="0 0 16 16"><defs><style>.cls-1,.cls-3{fill:#999;}.cls-2,.cls-3{opacity:0.5;}</style></defs><title>beauty</title><g id="Layer_2" data-name="Layer 2"><g id="icons"><g id="beauty"><path class="cls-1" d="M12.13,8l.77,5.4a1.36,1.36,0,0,1-.13.82,1.4,1.4,0,0,1-1.26.78h-7a1.4,1.4,0,0,1-1.26-.78,1.36,1.36,0,0,1-.13-.82L3.87,8l8.26,1M13,8H3l-.89,5.26A2.4,2.4,0,0,0,4.49,16h7a2.4,2.4,0,0,0,2.38-2.74L13,8Z"/><rect class="cls-1" x="2" y="8" width="12" height="1" rx="0.5" ry="0.5"/><rect class="cls-1" x="7" y="7" width="2" height="2"/><rect class="cls-1" x="6" y="4" width="4" height="3" rx="0.5" ry="0.5"/><rect class="cls-1" x="7" y="1" width="2" height="3"/><rect class="cls-1" x="5" y="2" width="2" height="1"/><ellipse class="cls-1" cx="3" cy="2.5" rx="3" ry="2.5"/><g class="cls-2"><path class="cls-1" d="M9,2.5,15.33.24A.5.5,0,0,1,16,.71V3.38a.49.49,0,0,1-.6.49Z"/></g><path class="cls-3" d="M11.69,12l.22,1.54a.39.39,0,0,1-.4.46h-7a.39.39,0,0,1-.4-.46L4.31,12l1-.57a1.55,1.55,0,0,1,1.49,0L7,11.5a1.57,1.57,0,0,0,1.81-.3h0a1.56,1.56,0,0,1,2.3.1Z"/></g></g></g></svg>