<svg xmlns="http://www.w3.org/2000/svg" viewBox="0 0 12 16"><defs><style>.cls-1,.cls-2{fill:#999;}.cls-2{opacity:0.5;}</style></defs><title>beer</title><g id="Layer_2" data-name="Layer 2"><g id="icons"><g id="beer"><path class="cls-1" d="M11,4H9V3H8V14a1,1,0,0,1-1,1H2a1,1,0,0,1-1-1V3H0V14a2,2,0,0,0,2,2H7a2,2,0,0,0,2-2V11h.5A2.5,2.5,0,0,0,12,8.5V5A1,1,0,0,0,11,4Zm0,4.5A1.5,1.5,0,0,1,9.5,10H9V5h2Z"/><rect class="cls-2" x="2" y="3" width="5" height="11"/><path class="cls-1" d="M1,0H8A1,1,0,0,1,9,1V2A0,0,0,0,1,9,2H0A0,0,0,0,1,0,2V1A1,1,0,0,1,1,0Z"/></g></g></g></svg>