<svg xmlns="http://www.w3.org/2000/svg" viewBox="0 0 20 12"><defs><style>.cls-1{opacity:0.5;}.cls-2{fill:#999;}</style></defs><title>bicycle</title><g id="Layer_2" data-name="Layer 2"><g id="icons"><g id="bicycle"><g class="cls-1"><path class="cls-2" d="M4,12A4,4,0,1,1,8,8,4,4,0,0,1,4,12ZM4,5A3,3,0,1,0,7,8,3,3,0,0,0,4,5Z"/></g><g class="cls-1"><path class="cls-2" d="M16,12a4,4,0,1,1,4-4A4,4,0,0,1,16,12Zm0-7a3,3,0,1,0,3,3A3,3,0,0,0,16,5Z"/></g><path class="cls-2" d="M15.75,1.93a.52.52,0,0,0-.25.44.5.5,0,0,0,.25.43.5.5,0,0,0,.5,0A1.5,1.5,0,0,0,15.5,0h-1a.49.49,0,0,0-.44.27L13.14,2H7.87L7.33,1H8.5A.5.5,0,0,0,9,.5.5.5,0,0,0,8.5,0h-3A.5.5,0,0,0,5,.5a.5.5,0,0,0,.5.5h.7L7,2.42,3.58,7.73a.49.49,0,0,0,0,.51A.51.51,0,0,0,4,8.5h6.51a.43.43,0,0,0,.25-.07l.05,0a.5.5,0,0,0,.13-.12v0h0l2.48-4.66,2.1,4.64a.51.51,0,0,0,.92-.42L14,2.45,14.8,1h.7a.5.5,0,0,1,.25.93ZM12.61,3l-2.1,3.94L8.41,3ZM4.91,7.5,7.5,3.43,9.68,7.5Z"/></g></g></g></svg>