<svg xmlns="http://www.w3.org/2000/svg" viewBox="0 0 14 14.54"><defs><style>.cls-1,.cls-2{fill:#999;}.cls-1{opacity:0.5;}</style></defs><title>bug</title><g id="Layer_2" data-name="Layer 2"><g id="icons"><g id="bug"><path class="cls-1" d="M11,1.81l.95-1a.48.48,0,0,0,0-.7.48.48,0,0,0-.7,0L10.07,1.28a6.91,6.91,0,0,0-6.14,0L2.79.15a.48.48,0,0,0-.7,0,.48.48,0,0,0,0,.7l1,1A7,7,0,0,0,.68,4.56H13.32A7,7,0,0,0,11,1.81Z"/><path class="cls-2" d="M13.71,5.56H7.5v9a7,7,0,0,0,6.21-9Zm-3.71,7a1,1,0,1,1,1-1A1,1,0,0,1,10,12.56Zm.5-3A1.5,1.5,0,1,1,12,8.06,1.5,1.5,0,0,1,10.5,9.56Z"/><path class="cls-2" d="M.29,5.56a7,7,0,0,0,6.21,9v-9Zm3.71,7a1,1,0,1,1,1-1A1,1,0,0,1,4,12.56Zm-.5-3A1.5,1.5,0,1,1,5,8.06,1.5,1.5,0,0,1,3.5,9.56Z"/></g></g></g></svg>