<svg xmlns="http://www.w3.org/2000/svg" viewBox="0 0 16 16.99"><defs><style>.cls-1,.cls-2{fill:#999;}.cls-2{opacity:0.5;}</style></defs><title>calendar</title><g id="Layer_2" data-name="Layer 2"><g id="icons"><g id="calendar"><path class="cls-1" d="M14,1H13V2.5A1.5,1.5,0,0,1,11.5,4h0A1.5,1.5,0,0,1,10,2.5V1H6V2.5A1.5,1.5,0,0,1,4.5,4h0A1.5,1.5,0,0,1,3,2.5V1H2A2,2,0,0,0,0,3V15a2,2,0,0,0,2,2H14a2,2,0,0,0,2-2V3A2,2,0,0,0,14,1Zm1,14a1,1,0,0,1-1,1H2a1,1,0,0,1-1-1V6H15Z"/><rect class="cls-2" x="4" width="1" height="3" rx="0.5" ry="0.5"/><rect class="cls-2" x="11" width="1" height="3" rx="0.5" ry="0.5"/><rect class="cls-2" x="11" y="8" width="2" height="2"/><rect class="cls-2" x="7" y="8" width="2" height="2"/><rect class="cls-2" x="11" y="12" width="2" height="2"/><rect class="cls-2" x="7" y="12" width="2" height="2"/><rect class="cls-2" x="3" y="12" width="2" height="2"/></g></g></g></svg>