<svg xmlns="http://www.w3.org/2000/svg" viewBox="0 0 16 12"><defs><style>.cls-1{fill:#a0a0a0;}</style></defs><title>car</title><g id="Layer_2" data-name="Layer 2"><g id="icons"><g id="car"><path class="cls-1" d="M2,11.5a.5.5,0,0,0,.5.5h1a.5.5,0,0,0,.5-.5V9H2Z"/><path class="cls-1" d="M12,11.5a.5.5,0,0,0,.5.5h1a.5.5,0,0,0,.5-.5V9H12Z"/><path class="cls-1" d="M15.75,4H14.66c-.13-.26-.25-.52-.37-.77a9.66,9.66,0,0,0-.81-1.72A2.71,2.71,0,0,0,12.19.74,12.81,12.81,0,0,0,10.48.25,11.49,11.49,0,0,0,8.73,0C8.49,0,8.24,0,8,0s-.49,0-.73,0A11.49,11.49,0,0,0,5.52.25,12.81,12.81,0,0,0,3.81.74a2.71,2.71,0,0,0-1.29.77,9.66,9.66,0,0,0-.81,1.72c-.12.25-.24.51-.37.77H.25A.25.25,0,0,0,0,4.24v.51A.25.25,0,0,0,.25,5H1a1.81,1.81,0,0,0,0,.23V7.89A2.06,2.06,0,0,0,3,10H13a2.06,2.06,0,0,0,2-2.11V5.23A1.81,1.81,0,0,0,15,5h.78A.25.25,0,0,0,16,4.75V4.24A.25.25,0,0,0,15.75,4ZM6,8H2.5A.51.51,0,0,1,2,7.47V6.56a.51.51,0,0,1,.62-.51L6,6.94ZM4.45,5.24,2.51,4.83a.42.42,0,0,1-.28-.6c.24-.5.38-1,.61-1.49a3.05,3.05,0,0,1,.63-1,2.9,2.9,0,0,1,1.3-.43c.31-.06.61-.11.92-.15C6.31,1.1,7,1,7.64,1L8,1l.36,0c.62,0,1.33.08,2,.16.31,0,.61.09.92.15a2.9,2.9,0,0,1,1.3.43,3.05,3.05,0,0,1,.63,1c.23.5.37,1,.61,1.49a.42.42,0,0,1-.28.6l-1.94.41A18.68,18.68,0,0,1,8,5.55,18.68,18.68,0,0,1,4.45,5.24ZM14,7.47a.51.51,0,0,1-.5.53H10V6.94l3.38-.89a.51.51,0,0,1,.62.51Z"/></g></g></g></svg>