<svg xmlns="http://www.w3.org/2000/svg" viewBox="0 0 19.14 13.7"><defs><style>.cls-1{fill:#a0a0a0;}</style></defs><title>cat</title><g id="Layer_2" data-name="Layer 2"><g id="icons"><path id="cat" class="cls-1" d="M18.83,10.1l-2.52-.48a5.09,5.09,0,0,0,0-2.95,28.54,28.54,0,0,0-1-2.91l0-.1L16,.34A.28.28,0,0,0,15.58,0L12.64,1.46h-.22A8,8,0,0,0,9.73.89v0H9.41v0a8,8,0,0,0-2.68.57H6.51L3.56,0a.28.28,0,0,0-.39.31l.69,3.32,0,.1a29,29,0,0,0-1,2.91,5.26,5.26,0,0,0,0,2.95L.31,10.1a.37.37,0,0,0-.3.44.38.38,0,0,0,.44.31l2.67-.5.12.21-2.43,1A.39.39,0,0,0,.6,12a.38.38,0,0,0,.5.21l2.58-1,.12.16L1.32,13a.38.38,0,0,0,.36.67l.06,0,2.62-1.72A6.32,6.32,0,0,0,8.53,13.4h2.08a6.33,6.33,0,0,0,4.18-1.48l2.61,1.72.07,0a.38.38,0,0,0,.46-.14.37.37,0,0,0-.11-.53l-2.48-1.63c.05,0,.08-.11.13-.16l2.57,1a.38.38,0,0,0,.29-.71l-2.42-1a2.12,2.12,0,0,0,.11-.21l2.67.5a.39.39,0,0,0,.45-.31A.38.38,0,0,0,18.83,10.1ZM4.18,3.33,3.39.43,5.32,2A4.51,4.51,0,0,0,4.18,3.33ZM5.57,9.9a1,1,0,1,1,1-1A1,1,0,0,1,5.57,9.9Zm5.5,2.45a3,3,0,0,1-.62.11h0a1.1,1.1,0,0,1-.68-.21A1.12,1.12,0,0,1,9.57,12h0a1.12,1.12,0,0,1-.19.24,1.07,1.07,0,0,1-.67.21h0a3.09,3.09,0,0,1-.62-.11.25.25,0,1,1,.13-.48,2.19,2.19,0,0,0,.5.09.69.69,0,0,0,.38-.11.71.71,0,0,0,.23-.52,1.34,1.34,0,0,1-.72-.93c0-.27.44-.49,1-.5s1,.23,1,.5a1.32,1.32,0,0,1-.72.93.71.71,0,0,0,.23.52.7.7,0,0,0,.39.11,2.11,2.11,0,0,0,.49-.09.25.25,0,0,1,.31.18A.25.25,0,0,1,11.07,12.35Zm2.5-2.45a1,1,0,1,1,1-1A1,1,0,0,1,13.57,9.9ZM13.82,2,15.75.43,15,3.33A4.63,4.63,0,0,0,13.82,2Z"/></g></g></svg>