<svg xmlns="http://www.w3.org/2000/svg" viewBox="0 0 18 18"><defs><style>.cls-1,.cls-2{fill:#999;}.cls-2{opacity:0.5;}</style></defs><title>urban</title><g id="Layer_2" data-name="Layer 2"><g id="icons"><g id="urban"><path class="cls-1" d="M17,6V2H16V8L14,9v6H13V7L11,5H10V4h1V3H10V2h1V0L9,2V6H7V4H6V1H5V14H4V7H3V3H0V18H10V7h1V18h7V8ZM1,4H2V5H1ZM1,6H2V7H1ZM1,8H2V9H1Zm0,2H3v1H1Zm0,2H3v1H1Zm0,2H3v1H1Zm2,3H1V16H3Zm6-2H7V13H9Zm0-3H7V10H9ZM9,9H7V7H9Zm7,8H15V16h1Zm0-2H15V14h1Zm0-2H15V12h1Zm0-2H15V10h1Z"/><rect class="cls-2" x="10" y="7" width="1" height="11"/><rect class="cls-2" x="10" y="4" width="1" height="1"/><rect class="cls-2" x="10" y="2" width="1" height="1"/><rect class="cls-2" x="1" y="4" width="1" height="1"/><rect class="cls-2" x="1" y="6" width="1" height="1"/><rect class="cls-2" x="1" y="8" width="1" height="1"/></g></g></g></svg>