<svg xmlns="http://www.w3.org/2000/svg" viewBox="0 0 17.6 16.19"><defs><style>.cls-1{fill:#999;}</style></defs><title>clippings</title><g id="Layer_2" data-name="Layer 2"><g id="icons"><path id="clippings" class="cls-1" d="M16.43,1.17a4,4,0,0,0-5.65,0L9.72,2.23,1.94,10,.88,11.07a3,3,0,0,0,4.24,4.24l1.06-1.06,5.66-5.66,1.77-1.76A2,2,0,1,0,10.78,4L3.35,11.42a.51.51,0,0,0,0,.71.5.5,0,0,0,.71,0l7.42-7.42a1,1,0,0,1,1.42,0,1,1,0,0,1,0,1.41L11.13,7.89,5.47,13.54,4.41,14.6a2,2,0,0,1-2.83-2.82l1.07-1.06,7.77-7.78,1.06-1.06a3,3,0,0,1,4.25,4.24L6.89,15a.5.5,0,0,0,0,.71.5.5,0,0,0,.7,0l8.84-8.84A4,4,0,0,0,16.43,1.17Z"/></g></g></svg>