<svg xmlns="http://www.w3.org/2000/svg" viewBox="0 0 10 14"><defs><style>.cls-1{fill:#999;}</style></defs><title>coffee</title><g id="Layer_2" data-name="Layer 2"><g id="icons"><g id="coffee"><path class="cls-1" d="M8.38,3,7.45,13H2.55L1.62,3H8.38m1.1-1h-9L1.64,14H8.36L9.48,2Z"/><path class="cls-1" d="M.54,5H9.47a.27.27,0,0,1,.29.27l-.48,4.5A.27.27,0,0,1,9,10H1a.27.27,0,0,1-.28-.23L.25,5.27A.27.27,0,0,1,.54,5Z"/><path class="cls-1" d="M9.51,1h-9a.26.26,0,0,0-.27.22L0,2.72A.26.26,0,0,0,.28,3H9.72A.26.26,0,0,0,10,2.72l-.22-1.5A.26.26,0,0,0,9.51,1Z"/><path class="cls-1" d="M1.33,0H8.67a.25.25,0,0,1,.25.25V1a0,0,0,0,1,0,0H1.08a0,0,0,0,1,0,0V.25A.25.25,0,0,1,1.33,0Z"/></g></g></g></svg>