<svg xmlns="http://www.w3.org/2000/svg" viewBox="0 0 18 19"><defs><style>.cls-1{fill:#999;}</style></defs><title>comics</title><g id="Layer_2" data-name="Layer 2"><g id="icons"><g id="comics"><path class="cls-1" d="M9.68,14.5H8.2a.25.25,0,0,0,0,.5H9.68a.25.25,0,0,0,0-.5Z"/><path class="cls-1" d="M4.21,7.5H6.83A.21.21,0,0,1,7,7.71v.07A.22.22,0,0,1,6.83,8H4.21A.21.21,0,0,1,4,7.79V7.72a.22.22,0,0,1,.22-.22Z"/><path class="cls-1" d="M11.14,7.5h2.62a.21.21,0,0,1,.21.21v.07a.22.22,0,0,1-.22.22H11.13a.21.21,0,0,1-.21-.21V7.72a.22.22,0,0,1,.22-.22Z"/><path class="cls-1" d="M5.56,11.37a1.85,1.85,0,0,0,2-1.87h-4A1.85,1.85,0,0,0,5.56,11.37Zm0-1.75a.5.5,0,0,1,.49.5.49.49,0,0,1-.49.5.5.5,0,0,1-.5-.5A.51.51,0,0,1,5.56,9.62Z"/><path class="cls-1" d="M10.51,9.5a1.84,1.84,0,0,0,2,1.87,1.84,1.84,0,0,0,2-1.87Zm2,1.12a.5.5,0,0,1-.5-.5.5.5,0,1,1,1,0A.49.49,0,0,1,12.49,10.62Z"/><path class="cls-1" d="M8.88,13.07a.59.59,0,0,1,.11.09.25.25,0,0,0,.21.12.28.28,0,0,0,.13,0,.25.25,0,0,0,.09-.34,1,1,0,0,0-.26-.25.59.59,0,0,1-.11-.09.26.26,0,0,1,0-.12,18.89,18.89,0,0,0,.2-3.68A.24.24,0,0,0,9,8.53a.26.26,0,0,0-.24.26,17.84,17.84,0,0,1-.19,3.58.72.72,0,0,0,0,.38A.7.7,0,0,0,8.88,13.07Z"/><path class="cls-1" d="M17.67,9a1,1,0,0,0-.84-.37,1.11,1.11,0,0,0-.41.14C16.23,3,13.75,0,9,0S1.81,3,1.62,8.79a1.11,1.11,0,0,0-.45-.17A1,1,0,0,0,.33,9,1.51,1.51,0,0,0,0,9.8a2.07,2.07,0,0,0,.27,1.26,4.27,4.27,0,0,0,.29.41l.13.17.21.3a4.37,4.37,0,0,0,.53.69,1.59,1.59,0,0,0,.69.36C3.22,16.51,5.89,19,9,19s5.81-2.5,6.9-6a1.56,1.56,0,0,0,.64-.35,3.84,3.84,0,0,0,.53-.69l.21-.3.13-.17a4.27,4.27,0,0,0,.29-.41A2.07,2.07,0,0,0,18,9.8,1.59,1.59,0,0,0,17.67,9ZM1.78,12.27a3.74,3.74,0,0,1-.46-.61l-.22-.32L1,11.16a2.8,2.8,0,0,1-.25-.35,1.62,1.62,0,0,1-.21-1,1,1,0,0,1,.21-.53.51.51,0,0,1,.41-.2,1,1,0,0,1,.46.24h0V9.5A11.87,11.87,0,0,0,2,12.4,1.4,1.4,0,0,1,1.78,12.27ZM9,18c-3.54,0-6.43-3.81-6.43-8.5C2.59,3.78,4.69,1,9,1s6.43,2.78,6.43,8.5C15.45,14.19,12.57,18,9,18Zm8.27-7.19a2.8,2.8,0,0,1-.25.35l-.14.18-.22.32a3.74,3.74,0,0,1-.46.61l-.12.09a12.11,12.11,0,0,0,.34-2.86V9.34a1.07,1.07,0,0,1,.44-.22.49.49,0,0,1,.41.2,1,1,0,0,1,.21.53A1.62,1.62,0,0,1,17.29,10.81Z"/></g></g></g></svg>