<svg xmlns="http://www.w3.org/2000/svg" viewBox="0 0 16 18"><defs><style>.cls-1,.cls-2{fill:#999;}.cls-2{opacity:0.5;}</style></defs><title>conference</title><g id="Layer_2" data-name="Layer 2"><g id="icons"><g id="conference"><path class="cls-1" d="M15.5,1.5h-7V.5a.5.5,0,0,0-1,0v1H.5a.5.5,0,0,0,0,1h15a.5.5,0,0,0,0-1Z"/><path class="cls-1" d="M15.5,12.5H.5a.5.5,0,0,0,0,1H3.84L.62,17.17a.51.51,0,0,0,.05.71.51.51,0,0,0,.71-.05L5.16,13.5H7.5v4a.5.5,0,0,0,1,0v-4h2.34l3.78,4.33a.51.51,0,0,0,.71.05.51.51,0,0,0,.05-.71L12.16,13.5H15.5a.5.5,0,0,0,0-1Z"/><path class="cls-1" d="M3,3.5v8H13v-8Zm9,7H4v-6h8Z"/><polygon class="cls-2" points="0 4.5 0 5.5 1 5.5 1 9.5 0 9.5 0 10.5 2 10.5 2 4.5 0 4.5"/><polygon class="cls-2" points="16 4.5 16 5.5 15 5.5 15 9.5 16 9.5 16 10.5 14 10.5 14 4.5 16 4.5"/><rect class="cls-2" x="4" y="4.5" width="8" height="6"/></g></g></g></svg>