<svg xmlns="http://www.w3.org/2000/svg" viewBox="0 0 18 14"><defs><style>.cls-1,.cls-2{fill:#999;}.cls-2{opacity:0.5;}</style></defs><title>contacts</title><g id="Layer_2" data-name="Layer 2"><g id="icons"><g id="contacts"><path class="cls-1" d="M18,1a1,1,0,0,0-1-1H1A1,1,0,0,0,0,1V13a1,1,0,0,0,1,1H4V13H3a1,1,0,0,1,0-2H6a1,1,0,0,1,0,2H5v1h8V13H12a1,1,0,0,1,0-2h3a1,1,0,0,1,0,2H14v1h3a1,1,0,0,0,1-1ZM9,2h6V4H9ZM8,9H1V2H8Zm4,0H9V8h3Zm5-3H9V5h8Z"/><path class="cls-2" d="M7,8a2.5,2.5,0,0,0-4.9,0Z"/><circle class="cls-2" cx="4.5" cy="4.5" r="1.5"/><rect class="cls-2" x="9" y="8" width="3" height="1"/></g></g></g></svg>