<svg xmlns="http://www.w3.org/2000/svg" viewBox="0 0 16 14"><defs><style>.cls-1{fill:#999;}</style></defs><title>cooking</title><g id="Layer_2" data-name="Layer 2"><g id="icons"><g id="cooking"><path class="cls-1" d="M14,4a12.26,12.26,0,0,0-4-1.81V1.25A1.25,1.25,0,0,0,8.75,0H7.25A1.25,1.25,0,0,0,6,1.25v.94A13.6,13.6,0,0,0,2,4H14ZM7,2V1H9V2A6.1,6.1,0,0,0,7,2Z"/><path class="cls-1" d="M14,5H2a.5.5,0,0,0-.5.5v.19c0,.2.13.33.22.53A1.63,1.63,0,0,1,2,7v6a1,1,0,0,0,1,1H13a1,1,0,0,0,1-1V7a1.63,1.63,0,0,1,.28-.78c.09-.2.22-.33.22-.53V5.5A.5.5,0,0,0,14,5ZM5,13H3V7H5Zm2,0H6V7H7Z"/><rect class="cls-1" x="13" y="6" width="3" height="1" rx="0.5" ry="0.5"/><rect class="cls-1" y="6" width="3" height="1" rx="0.5" ry="0.5"/></g></g></g></svg>