<svg xmlns="http://www.w3.org/2000/svg" viewBox="0 0 15.99 15.99"><defs><style>.cls-1{fill:#a0a0a0;}</style></defs><title>cricket</title><g id="Layer_2" data-name="Layer 2"><g id="icons"><g id="cricket"><path class="cls-1" d="M12.05,1.11l-.52.52L10.82.92l.29-.29A8,8,0,0,0,.63,11.11l1-1,.71.71L1.11,12.05a7.76,7.76,0,0,0,.57.84L12.89,1.68A7.76,7.76,0,0,0,12.05,1.11Zm-9,9-.7-.7L3.75,8l.71.71ZM5.16,8l-.7-.7L5.87,5.87l.71.71ZM7.29,5.87l-.71-.71L8,3.75l.71.71ZM9.41,3.75,8.7,3l1.41-1.41.71.71Z"/><path class="cls-1" d="M15.35,4.88l-1,1-.71-.71,1.23-1.22a9.69,9.69,0,0,0-.57-.85L3.09,14.31a9.69,9.69,0,0,0,.85.57l.52-.52.7.7-.28.29A8,8,0,0,0,15.35,4.88ZM5.87,14.36l-.71-.71,1.42-1.41.71.7ZM8,12.24l-.7-.71L8.7,10.11l.71.71Zm2.12-2.13-.7-.7L10.82,8l.71.71ZM12.24,8l-.71-.7,1.41-1.42.71.71Z"/></g></g></g></svg>