<svg xmlns="http://www.w3.org/2000/svg" viewBox="0 0 17 19"><defs><style>.cls-1{fill:#999;}</style></defs><title>d6</title><g id="Layer_2" data-name="Layer 2"><g id="icons"><path id="d6" class="cls-1" d="M17,4.49A.72.72,0,0,0,17,4.28l0,0,0,0a.44.44,0,0,0-.14-.13l0,0-8-4a.49.49,0,0,0-.44,0l-8,4s0,0,0,0a.44.44,0,0,0-.14.13l0,0,0,0a.72.72,0,0,0,0,.21H0v10A.51.51,0,0,0,.28,15l8,4h0a.47.47,0,0,0,.42,0h0l8-4A.51.51,0,0,0,17,14.5V4.5ZM8.5,1.06,15.38,4.5,8.5,7.94,1.62,4.5ZM1,5.31l7,3.5v8.88l-7-3.5ZM9,17.69V8.81l7-3.5v8.88Z"/></g></g></svg>