<svg xmlns="http://www.w3.org/2000/svg" viewBox="0 0 17 20"><defs><style>.cls-1,.cls-2{fill:#a0a0a0;}.cls-2{opacity:0.5;}</style></defs><title>dance</title><g id="Layer_2" data-name="Layer 2"><g id="icons"><g id="dance"><circle class="cls-1" cx="8" cy="2" r="2"/><path class="cls-2" d="M7.16,19.26,6.5,14h3l-.66,5.26A.84.84,0,0,1,8,20H8A.84.84,0,0,1,7.16,19.26Z"/><path class="cls-1" d="M16.91,4.11A.29.29,0,0,0,16.69,4L10.24,5a3.87,3.87,0,0,1-.48,0H6.61A2,2,0,0,1,5.5,4.66L.73,1.49a.44.44,0,0,0-.48,0A.47.47,0,0,0,0,1.88a.22.22,0,0,0,.09.19L6.15,7.14l.15,2a5.71,5.71,0,0,0-4.23,3.1.5.5,0,0,0,.44.74h11a.5.5,0,0,0,.44-.74A5.71,5.71,0,0,0,9.7,9.16L9.86,7l6.8-2.24A.49.49,0,0,0,17,4.31.25.25,0,0,0,16.91,4.11Z"/></g></g></g></svg>