<svg xmlns="http://www.w3.org/2000/svg" viewBox="0 0 18 18"><defs><style>.cls-1,.cls-2{fill:#999;}.cls-2,.cls-3{opacity:0.5;}</style></defs><title>database</title><g id="Layer_2" data-name="Layer 2"><g id="icons"><g id="database"><path class="cls-1" d="M9,7C5.66,7,2.87,6.33,2.17,5.44A.1.1,0,0,0,2,5.5V7C2,8.1,5.13,9,9,9s7-.9,7-2V5.5a.1.1,0,0,0-.17-.06C15.13,6.33,12.34,7,9,7Z"/><path class="cls-1" d="M9,10c-3.34,0-6.13-.67-6.83-1.56A.1.1,0,0,0,2,8.5V10c0,1.1,3.13,2,7,2s7-.9,7-2V8.5a.1.1,0,0,0-.17-.06C15.13,9.33,12.34,10,9,10Z"/><path class="cls-1" d="M9,0C5.13,0,2,.9,2,2V4C2,5.1,5.13,6,9,6s7-.9,7-2V2C16,.9,12.87,0,9,0Z"/><rect class="cls-1" x="6" y="15" width="6" height="3" rx="1" ry="1"/><rect class="cls-2" y="16" width="18" height="1"/><g class="cls-3"><rect class="cls-1" x="8.5" y="12" width="1" height="4"/></g></g></g></g></svg>