<svg xmlns="http://www.w3.org/2000/svg" viewBox="0 0 18 18"><defs><style>.cls-1,.cls-2{fill:#999;}.cls-2{opacity:0.5;}</style></defs><title>office</title><g id="Layer_2" data-name="Layer 2"><g id="icons"><g id="office"><path class="cls-1" d="M17.5,8H11L10,7h3.5a.5.5,0,0,0,.5-.5V.5a.5.5,0,0,0-.5-.5h-9A.5.5,0,0,0,4,.5v6a.5.5,0,0,0,.5.5H8L7,8H.5a.5.5,0,0,0,0,1H1v9H2V11h9v7h6V9h.5a.5.5,0,0,0,0-1ZM5,6V1h8V6ZM2,10V9h9v1Zm14,7H12V15h4Zm0-3H12V12h4Zm0-3H12V9h4Z"/><rect class="cls-2" x="6" y="2" width="6" height="3"/></g></g></g></svg>