<svg xmlns="http://www.w3.org/2000/svg" viewBox="0 0 16 16"><defs><style>.cls-1{fill:#999;}.cls-2{opacity:0.5;}</style></defs><title>diy</title><g id="Layer_2" data-name="Layer 2"><g id="icons"><g id="diy"><path class="cls-1" d="M15,1V4H3V1H15m0-1H3A1,1,0,0,0,2,1V4A1,1,0,0,0,3,5H15a1,1,0,0,0,1-1V1a1,1,0,0,0-1-1Z"/><path class="cls-1" d="M1.25,7A.25.25,0,0,1,1,6.75V3.25A.25.25,0,0,1,1.25,3H3V2H1.5A1.5,1.5,0,0,0,0,3.5v3A1.5,1.5,0,0,0,1.5,8H7.75A.25.25,0,0,1,8,8.25V12H9V8.5A1.5,1.5,0,0,0,7.5,7Z"/><rect class="cls-1" x="7" y="9" width="3" height="7" rx="1.5" ry="1.5"/><g class="cls-2"><polygon class="cls-1" points="15 1 3 1 3 2 15 2 15 1 15 1"/></g></g></g></g></svg>