<svg xmlns="http://www.w3.org/2000/svg" viewBox="0 0 19 15"><defs><style>.cls-1,.cls-2{fill:#a0a0a0;}.cls-2{opacity:0.5;}</style></defs><title>dna</title><g id="Layer_2" data-name="Layer 2"><g id="icons"><g id="dna"><path class="cls-1" d="M18,15h-.11c-5.37-.59-7.71-3.89-9.28-7C6.82,4.37,5.13,2.47.89,2a1,1,0,0,1,.22-2c5.1.56,7.27,3,9.28,7C12,10.29,14,12.54,18.11,13A1,1,0,0,1,18,15Z"/><path class="cls-1" d="M11.83,5.48A7.92,7.92,0,0,1,18.11,2a1,1,0,1,0-.22-2,9.86,9.86,0,0,0-7.16,3.61A20.72,20.72,0,0,1,11.83,5.48Z"/><path class="cls-1" d="M7.15,9.48A8.35,8.35,0,0,1,.89,13,1,1,0,0,0,1,15h.11a10.32,10.32,0,0,0,7.14-3.67A19.84,19.84,0,0,1,7.15,9.48Z"/><rect class="cls-2" x="1.5" y="3.5" width="1" height="8" rx="0.5" ry="0.5"/><rect class="cls-2" x="4.5" y="5.5" width="1" height="4" rx="0.5" ry="0.5"/><rect class="cls-2" x="13.5" y="5.5" width="1" height="4" rx="0.5" ry="0.5"/><rect class="cls-2" x="16.5" y="3.5" width="1" height="8" rx="0.5" ry="0.5"/></g></g></g></svg>