<svg xmlns="http://www.w3.org/2000/svg" viewBox="0 0 14 18"><defs><style>.cls-1{fill:#999;}.cls-2{opacity:0.5;}</style></defs><title>dalek</title><g id="Layer_2" data-name="Layer 2"><g id="icons"><g id="dalek"><rect class="cls-1" y="17" width="12" height="1"/><path class="cls-1" d="M13.5,0a1.51,1.51,0,0,0-1.41,1H7.94A3.46,3.46,0,0,0,5.5,0,3.5,3.5,0,0,0,2,3.5V4H9V3.5A3.45,3.45,0,0,0,8.65,2h3.44A1.51,1.51,0,0,0,13.5,3H14V0Z"/><path class="cls-1" d="M10.5,16l-.82-6H1v6H2V15H3v1H4V15H5v1H6V15H7v1H8V15H9v1ZM3,14H2V13H3Zm0-2H2V11H3Zm2,2H4V13H5Zm0-2H4V11H5Zm2,2H6V13H7Zm0-2H6V11H7Zm1-1H9v1H8Zm0,3V13H9v1Z"/><g class="cls-2"><rect class="cls-1" y="11" width="1" height="1"/><rect class="cls-1" y="13" width="1" height="1"/><rect class="cls-1" y="15" width="1" height="1"/><rect class="cls-1" x="2" y="11" width="1" height="1"/><rect class="cls-1" x="4" y="11" width="1" height="1"/><rect class="cls-1" x="6" y="11" width="1" height="1"/><rect class="cls-1" x="8" y="11" width="1" height="1"/><rect class="cls-1" x="2" y="13" width="1" height="1"/><rect class="cls-1" x="4" y="13" width="1" height="1"/><rect class="cls-1" x="6" y="13" width="1" height="1"/><rect class="cls-1" x="8" y="13" width="1" height="1"/><rect class="cls-1" x="2" y="15" width="1" height="1"/><rect class="cls-1" x="4" y="15" width="1" height="1"/><rect class="cls-1" x="6" y="15" width="1" height="1"/><rect class="cls-1" x="8" y="15" width="1" height="1"/></g><g class="cls-2"><rect class="cls-1" x="3" y="6" width="1" height="3"/><rect class="cls-1" x="5" y="6" width="1" height="3"/><rect class="cls-1" x="7" y="6" width="1" height="3"/></g><path class="cls-1" d="M14,7H9.27L9,5H2v.85a1.42,1.42,0,0,1,0,.29C1.84,7,1.25,9,1.25,9H3V6H4V9H5V6H6V9H7V6H8V9H9.55L9.41,8H14Z"/><rect class="cls-1" x="10" y="6.5" width="3" height="2" rx="1" ry="1"/></g></g></g></svg>