<svg xmlns="http://www.w3.org/2000/svg" viewBox="0 0 17 20"><defs><style>.cls-1,.cls-2{fill:#a0a0a0;}.cls-2{opacity:0.5;}</style></defs><title>doctor</title><g id="Layer_2" data-name="Layer 2"><g id="icons"><g id="doctor"><path class="cls-1" d="M14,8a3,3,0,1,0,3,3A3,3,0,0,0,14,8Zm0,5a2,2,0,1,1,2-2A2,2,0,0,1,14,13Z"/><circle class="cls-2" cx="14" cy="11" r="1"/><path class="cls-1" d="M8.5,0A.5.5,0,0,0,8,.5a.5.5,0,0,0,.5.5H9V6A4,4,0,0,1,1,6V1h.5A.5.5,0,0,0,2,.5.5.5,0,0,0,1.5,0H.5A.5.5,0,0,0,0,.5V6A5,5,0,0,0,10,6V.5A.5.5,0,0,0,9.5,0Z"/><path class="cls-2" d="M14,15a4.23,4.23,0,0,1-.5-.05V15a4,4,0,0,1-8,0V12a4.18,4.18,0,0,1-1,0v3a5,5,0,0,0,10,0V15A4.23,4.23,0,0,1,14,15Z"/></g></g></g></svg>