<svg xmlns="http://www.w3.org/2000/svg" viewBox="0 0 14 18"><defs><style>.cls-1,.cls-2{fill:#999;}.cls-2{opacity:0.5;}</style></defs><title>document</title><g id="Layer_2" data-name="Layer 2"><g id="icons"><g id="document"><path class="cls-1" d="M14,1a1,1,0,0,0-1-1H1A1,1,0,0,0,0,1V17a1,1,0,0,0,1,1H8V12h6ZM11,7.5a.5.5,0,0,1-.5.5h-7a.5.5,0,0,1,0-1h7A.5.5,0,0,1,11,7.5Zm0-3a.5.5,0,0,1-.5.5h-7a.5.5,0,0,1,0-1h7A.5.5,0,0,1,11,4.5Z"/><polygon class="cls-2" points="9 18 9 18 14 13 14 13 9 13 9 18"/></g></g></g></svg>