<svg xmlns="http://www.w3.org/2000/svg" viewBox="0 0 17.41 16.9"><defs><style>.cls-1,.cls-2{fill:#a0a0a0;}.cls-2{opacity:0.5;}</style></defs><title>dog</title><g id="Layer_2" data-name="Layer 2"><g id="icons"><g id="dog"><path class="cls-1" d="M8.71.9c-3.32,0-6,2-6,7,0,1.49,1.39,2.87,2.07,4,1.08,1.82,1.88,2,3.93,2s2.84-.18,3.92-2c.68-1.13,2.08-2.51,2.08-4C14.71,2.9,12,.9,8.71.9Zm-4,8a1,1,0,1,1,0-2,1,1,0,0,1,0,2Zm4,4c-1.11,0-2-1.44-2-2s.89-1,2-1,2,.45,2,1S9.81,12.9,8.71,12.9Zm4-4a1,1,0,0,1,0-2,1,1,0,0,1,0,2Z"/><path class="cls-2" d="M8.71,12.9a.51.51,0,0,1,.5.5v2a.5.5,0,0,1-.5.5.5.5,0,0,1-.5-.5v-2a.5.5,0,0,1,.5-.5h-2v2a2,2,0,1,0,4,0v-2Z"/><path class="cls-1" d="M5.6,1.73A4.19,4.19,0,0,0,3,0,1.58,1.58,0,0,0,1.22.88L0,3.26a.25.25,0,0,0,.32.34C1.53,3.09,4,2.16,4.71,2.9L5.56,2A.23.23,0,0,0,5.6,1.73Z"/><path class="cls-1" d="M11.81,1.73A4.19,4.19,0,0,1,14.43,0a1.58,1.58,0,0,1,1.76.84l1.2,2.39a.25.25,0,0,1-.33.34c-1.17-.52-3.61-1.46-4.35-.71L11.84,2A.24.24,0,0,1,11.81,1.73Z"/></g></g></g></svg>