<svg xmlns="http://www.w3.org/2000/svg" viewBox="0 0 16 17"><defs><style>.cls-1,.cls-2{fill:#999;}.cls-1{opacity:0.5;}</style></defs><title>drafts</title><g id="Layer_2" data-name="Layer 2"><g id="icons"><g id="drafts"><path class="cls-1" d="M3,5c0,2.76-.45,5-1,5H5V5Z"/><path class="cls-2" d="M15,5V4h1c-.19-2.28-1-4-2-4H2C.63,0,0,2.59,0,5s.63,5,2,5S4,7.41,4,5V17l2-1,2,1,2-1,2,1,2-1,2,1V5ZM2,7c-.35,0-.62-.9-.62-2S1.65,3,2,3s.62.9.62,2S2.35,7,2,7ZM13,4h1V5H13ZM11,4h1V5H11ZM9,4h1V5H9ZM7,4H8V5H7ZM5,4H6V5H5ZM5,7h8V8H5ZM5,9h9v1H5Zm0,2h8v1H5Zm10,3H5V13H15Z"/><rect class="cls-1" x="5" y="4" width="11" height="1"/></g></g></g></svg>