<svg xmlns="http://www.w3.org/2000/svg" viewBox="0 0 14.04 18"><defs><style>.cls-1{fill:#999;}</style></defs><title>dream</title><g id="Layer_2" data-name="Layer 2"><g id="icons"><g id="dream"><path class="cls-1" d="M14,11.65c.14-.34-.45-.71-1.22-1h0l-2-.74A3,3,0,0,1,9,7.83L7.4.29a.39.39,0,0,0-.75,0L5.06,7.83A3,3,0,0,1,3.25,9.92l-1.85.69h0c-.86.29-1.52.68-1.37,1,.33.8,3.58,1.11,7,1.11S13.69,12.45,14,11.65Z"/><path class="cls-1" d="M.34,12.17l0,0Z"/><path class="cls-1" d="M7,14a13.09,13.09,0,0,1-4.49-.74,7.49,7.49,0,0,1,2.19,2L6.27,17.6a.91.91,0,0,0,1.5,0l1.51-2.28a9.19,9.19,0,0,1,2.49-2.09A13.81,13.81,0,0,1,7,14Z"/></g></g></g></svg>