<svg xmlns="http://www.w3.org/2000/svg" viewBox="0 0 16.49 16.49"><defs><style>.cls-1,.cls-2{fill:#999;}.cls-1{opacity:0.5;}</style></defs><title>drugs</title><g id="Layer_2" data-name="Layer 2"><g id="icons"><g id="drugs"><path class="cls-1" d="M9.66,2.21h0a.5.5,0,0,1,.5.5v4.5a0,0,0,0,1,0,0h-1a0,0,0,0,1,0,0V2.71a.5.5,0,0,1,.5-.5Z" transform="translate(6.16 -5.45) rotate(45)"/><path class="cls-2" d="M15.31,1.17a4,4,0,0,0-5.65,0l-4.95,5L1.17,9.66a4,4,0,0,0,5.66,5.65l3.53-3.53,5-4.95A4,4,0,0,0,15.31,1.17Zm-5,9.19L8.24,8.24l-.7-.7-.71-.71-.71-.71,4.24-4.24a3,3,0,0,1,4.25,4.24Z"/></g></g></g></svg>