<svg xmlns="http://www.w3.org/2000/svg" viewBox="0 0 18 17.5"><defs><style>.cls-1,.cls-2{fill:#999;}.cls-2{opacity:0.5;}</style></defs><title>drums</title><g id="Layer_2" data-name="Layer 2"><g id="icons"><g id="drums"><path class="cls-1" d="M17,12.13V13c0,1.38-3.58,2.5-8,2.5S1,14.38,1,13v-.87A1.78,1.78,0,0,0,0,13.5v1c0,1.66,4,3,9,3s9-1.34,9-3v-1A1.78,1.78,0,0,0,17,12.13Z"/><path class="cls-2" d="M9,10.5c-3.49,0-6.51-.66-8-1.63V13c0,1.38,3.58,2.5,8,2.5s8-1.12,8-2.5V8.87C15.51,9.84,12.49,10.5,9,10.5Z"/><rect class="cls-1" x="8" y="11.5" width="2" height="3" rx="1" ry="1"/><path class="cls-1" d="M18,10.5a1,1,0,0,1-1,1v-2A1,1,0,0,1,18,10.5Z"/><path class="cls-1" d="M0,10.5a1,1,0,0,0,1,1v-2A1,1,0,0,0,0,10.5Z"/><path class="cls-1" d="M7,5a.93.93,0,0,0-.24,0L1.85.15a.48.48,0,0,0-.7,0,.48.48,0,0,0,0,.7l4.9,4.91A.93.93,0,0,0,6,6,1,1,0,1,0,7,5Z"/><path class="cls-1" d="M7.18,4.06C7.77,4,8.37,4,9,4s1.23,0,1.82.06l.46-.46c-.73-.06-1.49-.1-2.28-.1s-1.55,0-2.28.1Z"/><path class="cls-1" d="M14.89,4.23l-.39.39C16,5,17,5.61,17,6.25,17,7.49,13.42,8.5,9,8.5s-8-1-8-2.25C1,5.61,2,5,3.5,4.62l-.39-.39C1.21,4.78,0,5.59,0,6.5v1c0,1.66,4,3,9,3s9-1.34,9-3v-1C18,5.59,16.79,4.78,14.89,4.23Z"/><path class="cls-1" d="M16.85.15a.48.48,0,0,0-.7,0l-4.91,4.9A.93.93,0,0,0,11,5a1,1,0,1,0,1,1A.93.93,0,0,0,12,5.76L16.85.85A.48.48,0,0,0,16.85.15Z"/></g></g></g></svg>