<svg xmlns="http://www.w3.org/2000/svg" viewBox="0 0 16 14"><defs><style>.cls-1,.cls-2{fill:#999;}.cls-1{opacity:0.5;}</style></defs><title>economy</title><g id="Layer_2" data-name="Layer 2"><g id="icons"><g id="economy"><polygon class="cls-1" points="1 13 1 0 0 0 0 14 16 14 16 13 1 13"/><path class="cls-2" d="M3.25,5h1.5A.25.25,0,0,1,5,5.25V12a0,0,0,0,1,0,0H3a0,0,0,0,1,0,0V5.25A.25.25,0,0,1,3.25,5Z"/><path class="cls-2" d="M6.25,2h1.5A.25.25,0,0,1,8,2.25V12a0,0,0,0,1,0,0H6a0,0,0,0,1,0,0V2.25A.25.25,0,0,1,6.25,2Z"/><path class="cls-2" d="M9.25,9h1.5a.25.25,0,0,1,.25.25V12a0,0,0,0,1,0,0H9a0,0,0,0,1,0,0V9.25A.25.25,0,0,1,9.25,9Z"/><path class="cls-2" d="M12.25,7h1.5a.25.25,0,0,1,.25.25V12a0,0,0,0,1,0,0H12a0,0,0,0,1,0,0V7.25A.25.25,0,0,1,12.25,7Z"/></g></g></g></svg>