<svg xmlns="http://www.w3.org/2000/svg" viewBox="0 0 15 8"><defs><style>.cls-1{fill:#a0a0a0;}</style></defs><title>fitness</title><g id="Layer_2" data-name="Layer 2"><g id="icons"><polygon class="cls-1" points="0.5 3 0 3 0 5 0.5 5 0.5 7 1.5 7 1.5 1 0.5 1 0.5 3"/><path class="cls-1" d="M12.25,0h-1.5a.25.25,0,0,0-.25.25V3h-6V.25A.25.25,0,0,0,4.25,0H2.75A.25.25,0,0,0,2.5.25v7.5A.25.25,0,0,0,2.75,8h1.5a.25.25,0,0,0,.25-.25V5h6V7.75a.25.25,0,0,0,.25.25h1.5a.25.25,0,0,0,.25-.25V.25A.25.25,0,0,0,12.25,0Z"/><polygon class="cls-1" points="14.5 3 14.5 1 13.5 1 13.5 7 14.5 7 14.5 5 15 5 15 3 14.5 3"/></g></g></svg>