<svg xmlns="http://www.w3.org/2000/svg" viewBox="0 0 17.29 17.79"><defs><style>.cls-1,.cls-2{fill:#999;}.cls-2{opacity:0.5;}</style></defs><title>family</title><g id="Layer_2" data-name="Layer 2"><g id="icons"><g id="family"><path class="cls-1" d="M8.65,1A.49.49,0,0,1,9,1.15l7.22,7.22a.24.24,0,0,1-.18.42H14.65v7.75a.25.25,0,0,1-.25.25H2.9a.25.25,0,0,1-.25-.25V8.79H1.25a.25.25,0,0,1-.18-.42L8.29,1.15A.51.51,0,0,1,8.65,1m0-1A1.5,1.5,0,0,0,7.59.44L.37,7.66a1.25,1.25,0,0,0,.88,2.13h.4v6.75A1.25,1.25,0,0,0,2.9,17.79H14.4a1.25,1.25,0,0,0,1.25-1.25V9.79H16a1.25,1.25,0,0,0,.89-2.13L9.71.44A1.52,1.52,0,0,0,8.65,0Z"/><path class="cls-2" d="M8.65,14.29s-4-1.5-4-4.5a2.32,2.32,0,0,1,2.08-2.5A2.16,2.16,0,0,1,8.65,8.42a2.14,2.14,0,0,1,1.91-1.13,2.33,2.33,0,0,1,2.09,2.5C12.65,12.79,8.65,14.29,8.65,14.29Z"/></g></g></g></svg>