<svg xmlns="http://www.w3.org/2000/svg" viewBox="0 0 18 19.79"><defs><style>.cls-1,.cls-2{fill:#999;}.cls-1{opacity:0.5;}</style></defs><title>fantasy</title><g id="Layer_2" data-name="Layer 2"><g id="icons"><g id="fantasy"><path class="cls-1" d="M17.57,11.09a2,2,0,0,0-1.54.5A4.33,4.33,0,0,0,14.92,15c0,3.1-5.46,3.52-5.52,3.52a.49.49,0,0,0-.4.28.49.49,0,0,0-.4-.28c-.06,0-5.52-.42-5.52-3.52A4.33,4.33,0,0,0,2,11.59a2,2,0,0,0-1.54-.5.49.49,0,0,0-.42.57.5.5,0,0,0,.56.42,1,1,0,0,1,.74.27c.36.3.77,1,.77,2.63,0,4,6.19,4.5,6.45,4.52h0A.52.52,0,0,0,9,19.24a.52.52,0,0,0,.44.26h0c.26,0,6.45-.49,6.45-4.52,0-1.61.4-2.31.75-2.62a1.06,1.06,0,0,1,.76-.28.5.5,0,0,0,.56-.42A.49.49,0,0,0,17.57,11.09Z"/><path class="cls-2" d="M17,2,15,4,13.25,5.75a.23.23,0,0,1-.22.07.26.26,0,0,1-.19-.13L11,2V5l-.66.66a.25.25,0,0,1-.25.06.27.27,0,0,1-.17-.2L9,0,8.08,5.52a.27.27,0,0,1-.17.2.25.25,0,0,1-.25-.06L7,5V2L5.16,5.69A.26.26,0,0,1,5,5.82a.23.23,0,0,1-.22-.07L3,4,1,2,3,5l.9,4.5a.27.27,0,0,1-.09.25.29.29,0,0,1-.27,0L2,9l4.66,5.5A2,2,0,0,1,7,15.61V18l1-1v.5a.5.5,0,0,1-.5.5H7l1.65,1.65a.5.5,0,0,0,.7,0L11,18h-.5a.5.5,0,0,1-.5-.5V17l1,1V15.61a2,2,0,0,1,.34-1.11L16,9l-1.54.77a.29.29,0,0,1-.27,0,.27.27,0,0,1-.09-.25L15,5ZM5,11,4,8l4.11,3.28a.25.25,0,0,1,.06.31.24.24,0,0,1-.28.13Zm8,0-2.89.72a.24.24,0,0,1-.28-.13.25.25,0,0,1,.06-.31L14,8Z"/></g></g></g></svg>