<svg xmlns="http://www.w3.org/2000/svg" viewBox="0 0 15.66 15.66"><defs><style>.cls-1{fill:#999;}</style></defs><title>football</title><g id="Layer_2" data-name="Layer 2"><g id="icons"><g id="football"><path class="cls-1" d="M0,11.34A4.85,4.85,0,0,0,.76,14.9a4.92,4.92,0,0,0,3.55.73Z"/><path class="cls-1" d="M11.34,0l4.29,4.28A4.92,4.92,0,0,0,14.9.76,4.85,4.85,0,0,0,11.34,0Z"/><path class="cls-1" d="M3.59,3.59A12.42,12.42,0,0,0,.47,9L6.7,15.18a12.39,12.39,0,0,0,5.37-3.11A12.39,12.39,0,0,0,15.18,6.7L9,.47A12.42,12.42,0,0,0,3.59,3.59Zm8.13,1.76a.51.51,0,0,1,0,.71.5.5,0,0,1-.71,0l-.35-.35-.71.7.35.36a.49.49,0,0,1-.7.7l-.36-.35-.7.71.35.35a.5.5,0,0,1-.71.71l-.35-.35-.71.7.35.36a.49.49,0,0,1-.7.7L6.41,10l-.7.71.35.35a.5.5,0,0,1,0,.71.51.51,0,0,1-.71,0L3.94,10.3a.48.48,0,0,1,0-.7.5.5,0,0,1,.71,0L5,10l.71-.71-.36-.35a.5.5,0,0,1,.71-.71l.35.36.71-.71-.35-.36a.49.49,0,1,1,.7-.7l.36.35.71-.71-.36-.35a.5.5,0,0,1,.71-.71l.35.36L10,5,9.6,4.65a.5.5,0,0,1,0-.71.48.48,0,0,1,.7,0Z"/></g></g></g></svg>