<svg xmlns="http://www.w3.org/2000/svg" viewBox="0 0 20 16"><defs><style>.cls-1{fill:#999;}</style></defs><title>game</title><g id="Layer_2" data-name="Layer 2"><g id="icons"><g id="game"><rect class="cls-1" x="2" y="6" width="2" height="4"/><rect class="cls-1" x="16" y="6" width="2" height="4"/><rect class="cls-1" y="8" width="2" height="4"/><rect class="cls-1" x="18" y="8" width="2" height="4"/><rect class="cls-1" x="6" y="12" width="2" height="2"/><rect class="cls-1" x="12" y="12" width="2" height="2"/><rect class="cls-1" x="14" y="14" width="2" height="2"/><rect class="cls-1" x="4" y="14" width="2" height="2"/><rect class="cls-1" x="6" y="2" width="2" height="2"/><rect class="cls-1" x="12" y="2" width="2" height="2"/><rect class="cls-1" x="4" width="2" height="2"/><rect class="cls-1" x="14" width="2" height="2"/><path class="cls-1" d="M4,4v8H16V4ZM8,8H6V6H8Zm6,0H12V6h2Z"/></g></g></g></svg>