<svg xmlns="http://www.w3.org/2000/svg" viewBox="0 0 19.53 15.96"><defs><style>.cls-1,.cls-2{fill:#999;}.cls-1{opacity:0.5;}</style></defs><title>graduation</title><g id="Layer_2" data-name="Layer 2"><g id="icons"><g id="graduation"><path class="cls-1" d="M9.64,12.88,3.94,9.46,3.76,13c0,1.66,2.69,3,6,3s6-1.34,6-3l-.14-3.51L9.89,12.88A.23.23,0,0,1,9.64,12.88Z"/><path class="cls-2" d="M10,5.54a.5.5,0,1,1-.53.84L4.43,3.16.12,5.74a.25.25,0,0,0,0,.43l9.52,5.71a.23.23,0,0,0,.25,0l9.52-5.71a.25.25,0,0,0,0-.43L9.89,0a.23.23,0,0,0-.25,0L5.39,2.58Z"/></g></g></g></svg>