<svg xmlns="http://www.w3.org/2000/svg" viewBox="0 0 19.94 19.94"><defs><style>.cls-1,.cls-2{fill:#999;}.cls-2{opacity:0.5;}</style></defs><title>guitar</title><g id="Layer_2" data-name="Layer 2"><g id="icons"><g id="guitar"><path class="cls-1" d="M17.27,4.18l1.59-.95A.38.38,0,0,0,19,3.14l.95-1.59a.24.24,0,0,0,0-.3L18.69.07a.26.26,0,0,0-.31,0L16.79,1a.24.24,0,0,0-.08.09l-1,1.59a.24.24,0,0,0,0,.3L17,4.14A.25.25,0,0,0,17.27,4.18Z"/><path class="cls-1" d="M10.29,16.07h0a3.08,3.08,0,0,1,1.78-2.62,2.64,2.64,0,0,0,.69-.47c1-1,.92-2.78-.08-4.27L10.38,11A2,2,0,1,1,7,10.08a2,2,0,0,1,2-.53l2.3-2.29C9.74,6.25,8,6.17,7,7.18a2.47,2.47,0,0,0-.48.68h0A3.07,3.07,0,0,1,3.86,9.65a4,4,0,0,0-2.7,1.15c-1.8,1.8-1.47,5,.73,7.25s5.44,2.52,7.24.72A4.09,4.09,0,0,0,10.29,16.07Zm-4-.13-2.73-1.4a.5.5,0,0,1-.23-.69A.51.51,0,0,1,4,13.63L6.75,15a.51.51,0,0,1-.47.91Z"/><path class="cls-2" d="M9.86,10.08a2,2,0,0,1,.52.92l2.3-2.29L16.38,5,14.93,3.56l-3.7,3.7L8.93,9.55A2,2,0,0,1,9.86,10.08Z"/></g></g></g></svg>