<svg xmlns="http://www.w3.org/2000/svg" viewBox="0 0 16 14"><defs><style>.cls-1,.cls-2{fill:#999;}.cls-2{opacity:0.5;}</style></defs><title>health</title><g id="Layer_2" data-name="Layer 2"><g id="icons"><g id="health"><path class="cls-1" d="M5.19,7,6.55,4.28A.51.51,0,0,1,7,4a.5.5,0,0,1,.43.34L9,8.92l.53-1.58A.49.49,0,0,1,10,7h5.68A6.55,6.55,0,0,0,16,5a4.65,4.65,0,0,0-4.17-5A4.29,4.29,0,0,0,8,2.25,4.29,4.29,0,0,0,4.17,0,4.65,4.65,0,0,0,0,5,6.55,6.55,0,0,0,.32,7Z"/><path class="cls-2" d="M10.36,8l-.89,2.66a.49.49,0,0,1-.94,0L6.91,5.8,6,7.72A.51.51,0,0,1,5.5,8H.71C2.67,12,8,14,8,14s5.33-2,7.29-6Z"/></g></g></g></svg>