<svg xmlns="http://www.w3.org/2000/svg" viewBox="0 0 15.29 15.79"><defs><style>.cls-1{fill:#999;}</style></defs><title>home</title><g id="Layer_2" data-name="Layer 2"><g id="icons"><g id="home"><path class="cls-1" d="M7.29.15.07,7.37a.25.25,0,0,0,.18.42H15a.24.24,0,0,0,.18-.42L8,.15A.5.5,0,0,0,7.29.15Z"/><path class="cls-1" d="M1.65,6.79v8.75a.25.25,0,0,0,.25.25H5.65v-7h4v7H13.4a.25.25,0,0,0,.25-.25V6.79Z"/><path class="cls-1" d="M4.53,1.85a.22.22,0,0,0-.13-.06H2.9A.25.25,0,0,0,2.65,2V3.73Z"/></g></g></g></svg>