<svg xmlns="http://www.w3.org/2000/svg" viewBox="0 0 20 18"><defs><style>.cls-1,.cls-2{fill:#999;}.cls-1{opacity:0.5;}</style></defs><title>isaac</title><g id="Layer_2" data-name="Layer 2"><g id="icons"><g id="isaac"><path class="cls-1" d="M10,0C4,0,0,4,0,9s4.48,9,10,9,10-4,10-9S16,0,10,0ZM4.59,10.77a2.32,2.32,0,0,1-1.46-.52,2.16,2.16,0,0,1-.81-1.7A2.24,2.24,0,0,1,4.59,6.34a2.22,2.22,0,1,1,0,4.43ZM7,12c0-1.66,1.34-3.5,3-3.5s3,1.84,3,3.5Zm8.27-1.23a2.22,2.22,0,1,1,2.27-2.22A2.25,2.25,0,0,1,15.27,10.77Z"/><path class="cls-2" d="M14,10.4a2.21,2.21,0,0,1-1-1.85,2.27,2.27,0,0,1,4.54,0,2.19,2.19,0,0,1-.37,1.21s.78,1.2.66,4.83A8.41,8.41,0,0,0,20,9c0-5-4-9-10-9S0,4,0,9a8.5,8.5,0,0,0,2.58,6,18.13,18.13,0,0,1,0-5.55,2.06,2.06,0,0,1-.22-.93A2.24,2.24,0,0,1,4.59,6.34,2.24,2.24,0,0,1,6.86,8.55a2.21,2.21,0,0,1-1.13,1.91,9.71,9.71,0,0,0,.15,6.73A10.77,10.77,0,0,0,10,18a10.91,10.91,0,0,0,4.6-1C14.7,15.93,15,12.55,14,10.4ZM7,12c0-1.66,1.34-3.5,3-3.5s3,1.84,3,3.5Z"/><path class="cls-2" d="M12.45,11.5a4.6,4.6,0,0,0-.13-.5H7.68a4.6,4.6,0,0,0-.13.5Z"/><circle class="cls-2" cx="4" cy="8" r="1"/><circle class="cls-2" cx="15" cy="8" r="1"/></g></g></g></svg>