<svg xmlns="http://www.w3.org/2000/svg" viewBox="0 0 20 16"><defs><style>.cls-1{fill:#999;}.cls-2{opacity:0.5;}</style></defs><title>keyboard</title><g id="Layer_2" data-name="Layer 2"><g id="icons"><g id="keyboard"><path class="cls-1" d="M18,1a1,1,0,0,1,1,1V14a1,1,0,0,1-1,1H2a1,1,0,0,1-1-1V2A1,1,0,0,1,2,1H18m0-1H2A2,2,0,0,0,0,2V14a2,2,0,0,0,2,2H18a2,2,0,0,0,2-2V2a2,2,0,0,0-2-2Z"/><rect class="cls-1" x="3.5" width="3" height="10" rx="0.5" ry="0.5"/><rect class="cls-1" x="8.5" width="3" height="10" rx="0.5" ry="0.5"/><g class="cls-2"><polygon class="cls-1" points="5.5 4 4.5 4 4.5 15 5.5 15 5.5 4 5.5 4"/></g><g class="cls-2"><polygon class="cls-1" points="10.5 6 9.5 6 9.5 15 10.5 15 10.5 6 10.5 6"/></g><rect class="cls-1" x="13.5" width="3" height="10" rx="0.5" ry="0.5"/><g class="cls-2"><polygon class="cls-1" points="15.5 6 14.5 6 14.5 15 15.5 15 15.5 6 15.5 6"/></g></g></g></g></svg>