<svg xmlns="http://www.w3.org/2000/svg" viewBox="0 0 17.66 19.9"><defs><style>.cls-1{fill:#999;}</style></defs><title>legal</title><g id="Layer_2" data-name="Layer 2"><g id="icons"><g id="legal"><rect class="cls-1" y="18.9" width="12" height="1"/><path class="cls-1" d="M11,16.9l-1.33-.22a17.46,17.46,0,0,0-7.34,0L1,16.9v1H11Z"/><path class="cls-1" d="M6.2,14.29a.5.5,0,0,0,.7,0,.5.5,0,0,0,0-.71L2,8.63a.5.5,0,0,0-.7,0,.5.5,0,0,0,0,.71Z"/><path class="cls-1" d="M14.68,5.8a.5.5,0,0,0,.71,0,.5.5,0,0,0,0-.7l-5-4.95a.5.5,0,0,0-.71,0,.5.5,0,0,0,0,.7Z"/><path class="cls-1" d="M17.51,15.7,10.79,9l2.83-2.83L9.38,1.91,3,8.28l4.25,4.24,2.83-2.83,6.71,6.72a.5.5,0,0,0,.71-.71Z"/></g></g></g></svg>