<svg xmlns="http://www.w3.org/2000/svg" viewBox="0 0 14 18"><defs><style>.cls-1,.cls-2{fill:#999;}.cls-2{opacity:0.5;}</style></defs><title>list</title><g id="Layer_2" data-name="Layer 2"><g id="icons"><g id="list"><rect class="cls-1" width="3" height="3" rx="0.5" ry="0.5"/><rect class="cls-1" x="4" width="10" height="1" rx="0.5" ry="0.5"/><rect class="cls-2" x="4" y="2" width="5" height="1" rx="0.5" ry="0.5"/><rect class="cls-1" y="5" width="3" height="3" rx="0.5" ry="0.5"/><rect class="cls-1" x="4" y="5" width="10" height="1" rx="0.5" ry="0.5"/><rect class="cls-2" x="4" y="7" width="7" height="1" rx="0.5" ry="0.5"/><rect class="cls-1" y="10" width="3" height="3" rx="0.5" ry="0.5"/><rect class="cls-1" x="4" y="10" width="10" height="1" rx="0.5" ry="0.5"/><rect class="cls-2" x="4" y="12" width="3" height="1" rx="0.5" ry="0.5"/><rect class="cls-1" y="15" width="3" height="3" rx="0.5" ry="0.5"/><rect class="cls-1" x="4" y="15" width="10" height="1" rx="0.5" ry="0.5"/><rect class="cls-2" x="4" y="17" width="5" height="1" rx="0.5" ry="0.5"/></g></g></g></svg>