<svg xmlns="http://www.w3.org/2000/svg" viewBox="0 0 20 14"><defs><style>.cls-1,.cls-2{fill:#999;}.cls-1{opacity:0.5;}</style></defs><title>lotr</title><g id="Layer_2" data-name="Layer 2"><g id="icons"><g id="lotr"><path class="cls-1" d="M8.5,7c0-3.87.67-7,1.5-7C4.48,0,0,3.13,0,7s4.48,7,10,7C9.17,14,8.5,10.87,8.5,7Z"/><path class="cls-1" d="M11.5,7c0-3.87-.67-7-1.5-7,5.52,0,10,3.13,10,7s-4.48,7-10,7C10.83,14,11.5,10.87,11.5,7Z"/><path class="cls-2" d="M9.68,13.84,6,12l1-1L4,10,7,9,5,8,7,7,3,6,7,5,4,4,7,3,5,2,9.77.09A.41.41,0,0,1,10,0C4.48,0,0,3.13,0,7s4.48,7,10,7A.49.49,0,0,1,9.68,13.84Z"/><path class="cls-2" d="M10.32,13.84,14,12l-1-1,3-1L13,9l2-1L13,7l4-1L13,5l3-1L13,3l2-1L10.23.09A.41.41,0,0,0,10,0c5.52,0,10,3.13,10,7s-4.48,7-10,7A.49.49,0,0,0,10.32,13.84Z"/></g></g></g></svg>