<svg xmlns="http://www.w3.org/2000/svg" viewBox="0 0 16 13"><defs><style>.cls-1,.cls-2{fill:#a0a0a0;}.cls-2{opacity:0.5;}</style></defs><title>mac</title><g id="Layer_2" data-name="Layer 2"><g id="icons"><g id="mac"><path id="tv" class="cls-1" d="M15,9.75V.25A.25.25,0,0,0,14.75,0H1.25A.25.25,0,0,0,1,.25v9.5a.25.25,0,0,0,.25.25h13.5A.25.25,0,0,0,15,9.75ZM2,9V1H14V9Z"/><path id="tv-2" data-name="tv" class="cls-1" d="M16,12l-1-1H1L0,12Z"/><path class="cls-1" d="M0,12H16a0,0,0,0,1,0,0v.82a.18.18,0,0,1-.18.18H.18A.18.18,0,0,1,0,12.82V12A0,0,0,0,1,0,12Z"/><rect class="cls-2" x="3" y="2" width="10" height="6"/></g></g></g></svg>