<svg xmlns="http://www.w3.org/2000/svg" viewBox="0 0 13.83 13"><defs><style>.cls-1{fill:#999;}</style></defs><title>math</title><g id="Layer_2" data-name="Layer 2"><g id="icons"><path id="math" class="cls-1" d="M8.52,2H5.59c-.14,1.7-.33,3.18-.46,4.27C5,7.12,4.9,8,4.76,8.83a18.42,18.42,0,0,1-.53,2.76,2.48,2.48,0,0,1-.55,1,1.47,1.47,0,0,1-1.56.31,1.4,1.4,0,0,1-.86-1.33,2.21,2.21,0,0,1,.59-1.24A8.62,8.62,0,0,0,3,8.89,2.4,2.4,0,0,0,3.2,8L4,2H2.77a2,2,0,0,0-1,.25,2.3,2.3,0,0,0-.72.58A9.39,9.39,0,0,0,.34,4H0c.12-.33.33-.85.51-1.31a5.89,5.89,0,0,1,.74-1.34,3.22,3.22,0,0,1,1-.95A2.59,2.59,0,0,1,3.69,0H13.83V2H10.11c0,1.34,0,2.67-.07,4,0,1.16-.24,2.64.33,3.7a1.63,1.63,0,0,0,1.19.9,1.46,1.46,0,0,0,1.21-.47,2.52,2.52,0,0,0,.51-1.47h.55a4.87,4.87,0,0,1-1.68,3.86,2.18,2.18,0,0,1-2.2.29,2.41,2.41,0,0,1-.92-.9C8,10.27,8.23,8.2,8.32,6.34Z"/></g></g></svg>