<svg xmlns="http://www.w3.org/2000/svg" viewBox="0 0 12 16"><defs><style>.cls-1{fill:#999;}.cls-2{opacity:0.5;}</style></defs><title>me</title><g id="Layer_2" data-name="Layer 2"><g id="icons"><g id="me"><path class="cls-1" d="M6,1A5,5,0,1,1,1,6,5,5,0,0,1,6,1M6,0a6,6,0,1,0,6,6A6,6,0,0,0,6,0Z"/><g class="cls-2"><circle class="cls-1" cx="6" cy="6" r="4"/></g><rect class="cls-1" x="5.5" y="11.5" width="1" height="4.5"/><rect class="cls-1" x="5" y="13" width="2" height="3" rx="1" ry="1"/><rect class="cls-1" x="2" y="15" width="8" height="1"/><path class="cls-1" d="M6,3A3,3,0,0,0,3,6a3,3,0,0,0,.14.86L6.86,3.14A3,3,0,0,0,6,3Z"/><path class="cls-1" d="M7.55,3.45l-4.1,4.1a2.67,2.67,0,0,0,.43.57L8.12,3.88A2.67,2.67,0,0,0,7.55,3.45Z"/></g></g></g></svg>