<svg xmlns="http://www.w3.org/2000/svg" viewBox="0 0 18 18"><defs><style>.cls-1,.cls-2{fill:#999;}.cls-1{opacity:0.5;}</style></defs><title>mic</title><g id="Layer_2" data-name="Layer 2"><g id="icons"><g id="mic"><path class="cls-1" d="M16.86,1.14a3.92,3.92,0,0,0-5.53,0,3.88,3.88,0,0,0-1.11,3l3.61,3.61a3.88,3.88,0,0,0,3-1.11A3.92,3.92,0,0,0,16.86,1.14Z"/><path class="cls-2" d="M2.17,14.08l1.75,1.75a.25.25,0,0,0,.33,0L12.79,8.5a.25.25,0,0,0,0-.36L9.86,5.2a.25.25,0,0,0-.36,0L2.16,13.75A.25.25,0,0,0,2.17,14.08Z"/><path class="cls-1" d="M.29,17.71h0a1,1,0,0,0,1.38,0l1.38-1.38L1.67,15,.29,16.33A1,1,0,0,0,.29,17.71Z"/></g></g></g></svg>