<svg xmlns="http://www.w3.org/2000/svg" viewBox="0 0 20 11.87"><defs><style>.cls-1{opacity:0.5;}.cls-2{fill:#999;}</style></defs><title>motorbike</title><g id="Layer_2" data-name="Layer 2"><g id="icons"><g id="motorbike"><g class="cls-1"><path class="cls-2" d="M3.5,5.87A2.5,2.5,0,1,1,1,8.37a2.5,2.5,0,0,1,2.5-2.5m0-1A3.5,3.5,0,1,0,7,8.37a3.5,3.5,0,0,0-3.5-3.5Z"/></g><g class="cls-1"><path class="cls-2" d="M16.5,5.87A2.5,2.5,0,1,1,14,8.37a2.5,2.5,0,0,1,2.5-2.5m0-1A3.5,3.5,0,1,0,20,8.37a3.5,3.5,0,0,0-3.5-3.5Z"/></g><path class="cls-2" d="M17.64,3.15l-.4-.81a2,2,0,0,0-.69-.77L14.22,0a.08.08,0,0,0-.09,0,.06.06,0,0,0,0,.08L15,1.87h-.74l-.3-.7A.5.5,0,0,0,13.3.91a.49.49,0,0,0-.26.65l.13.31H12a2.4,2.4,0,0,0-1.68.69l-.3.31H7.2a.49.49,0,0,1-.34-.15L5.49,1.35A1.24,1.24,0,0,0,4.33,1l-3,.74A.49.49,0,0,0,1,2.25v.21a.48.48,0,0,0,.4.48l3.74.75a2.12,2.12,0,0,1,1.35.91L7.92,6.74A.53.53,0,0,1,8,7v.65a.54.54,0,0,0,.05.21H3.5a.5.5,0,0,0-.5.5.5.5,0,0,0,.5.5H9l.86.85a.49.49,0,0,0,.34.15h1.31a.5.5,0,0,0,.49-.5V6.88a1.42,1.42,0,0,1,1-1.34L14.52,5,16,8.56a.51.51,0,0,0,.46.31.52.52,0,0,0,.46-.7L15.48,4.71l1.76-.59A.7.7,0,0,0,17.64,3.15Z"/></g></g></g></svg>