<svg xmlns="http://www.w3.org/2000/svg" viewBox="0 0 16 18"><defs><style>.cls-1{fill:#999;}</style></defs><title>nature</title><g id="Layer_2" data-name="Layer 2"><g id="icons"><g id="nature"><path class="cls-1" d="M8,0S4.7,4.88,4.7,7.3A3.76,3.76,0,0,0,7,11L8,3l1,8a3.87,3.87,0,0,0,2.44-3.7C11.44,4.88,8,0,8,0Z"/><path class="cls-1" d="M0,9.65s.77,3.48,1.87,4.52A3,3,0,0,0,4.74,15c.22.21-3.41-4.11-3.41-4.11s4.55,3.44,4.34,3.23a2.63,2.63,0,0,0-.9-2.72C3.67,10.38,0,9.65,0,9.65Z"/><path class="cls-1" d="M16,9.65s-.77,3.48-1.87,4.52a3,3,0,0,1-2.87.85c-.22.21,3.41-4.11,3.41-4.11s-4.55,3.44-4.34,3.23a2.63,2.63,0,0,1,.9-2.72C12.33,10.38,16,9.65,16,9.65Z"/><path class="cls-1" d="M8.06,12.23c-.36,0-.71,0-1.05-.06l-.35,5.26a.51.51,0,0,0,.53.57H8.78a.52.52,0,0,0,.54-.57L9,12.17A9.28,9.28,0,0,1,8.06,12.23Z"/></g></g></g></svg>