<svg xmlns="http://www.w3.org/2000/svg" viewBox="0 0 20 7"><defs><style>.cls-1,.cls-2{fill:#999;}.cls-2{opacity:0.5;}</style></defs><title>nerd</title><g id="Layer_2" data-name="Layer 2"><g id="icons"><g id="nerd"><path class="cls-1" d="M19,1a1,1,0,0,0-1-1H12a1,1,0,0,0-1,1H9A1,1,0,0,0,8,0H2A1,1,0,0,0,1,1H0V2H1V4A3,3,0,0,0,4,7H6A3,3,0,0,0,9,4V2h2V4a3,3,0,0,0,3,3h2a3,3,0,0,0,3-3V2h1V1ZM8,4A2,2,0,0,1,6,6H4A2,2,0,0,1,2,4V1H8ZM18,4a2,2,0,0,1-2,2H14a2,2,0,0,1-2-2V1h6Z"/><path class="cls-2" d="M6,3H5V2H3V4A1,1,0,0,0,4,5H6A1,1,0,0,0,7,4H6Z"/><path class="cls-2" d="M16,3H15V2H13V4a1,1,0,0,0,1,1h2a1,1,0,0,0,1-1H16Z"/></g></g></g></svg>