<svg xmlns="http://www.w3.org/2000/svg" viewBox="0 0 18 17.99"><defs><style>.cls-1{fill:#999;}</style></defs><title>note</title><g id="Layer_2" data-name="Layer 2"><g id="icons"><g id="note"><path class="cls-1" d="M6.14,14.59c-.2.2-.41.37-.62.55L2.88,12.53c.18-.2.36-.42.55-.61l8.88-8.77L15,5.82Z"/><path class="cls-1" d="M17.72.47a1,1,0,0,0-1.35,0l-.79.78A1.55,1.55,0,0,0,15,1.14a1.66,1.66,0,0,0-1.16.47l-.2.2,2.71,2.67.2-.19A1.65,1.65,0,0,0,17,3.15a1.8,1.8,0,0,0-.1-.57l.78-.77A1,1,0,0,0,17.72.47Z"/><path class="cls-1" d="M7.92,5.48h0a.47.47,0,0,0,.67,0L13.32.81a.46.46,0,0,0,0-.67h0a.46.46,0,0,0-.67,0L7.92,4.82A.45.45,0,0,0,7.92,5.48Z"/><path class="cls-1" d="M4.76,15.73,2.28,13.28A11.27,11.27,0,0,0,.84,15.86l.65.65.34.33h0l.32.32A12,12,0,0,0,4.76,15.73Z"/><path class="cls-1" d="M.48,16.84l-.34.34a.46.46,0,0,0,0,.67.5.5,0,0,0,.68,0l.33-.34Z"/></g></g></g></svg>