<svg xmlns="http://www.w3.org/2000/svg" viewBox="0 0 16 14"><defs><style>.cls-1,.cls-2{fill:#a0a0a0;}.cls-2{opacity:0.5;}</style></defs><title>photo</title><g id="Layer_2" data-name="Layer 2"><g id="icons"><g id="photo"><path class="cls-1" d="M0,0V11H13V0ZM12,10H1V1H12Z"/><polygon class="cls-1" points="16 3 14 3 14 4 15 4 15 13 4 13 4 12 3 12 3 14 16 14 16 3"/><polygon class="cls-1" points="2.38 10.29 6.29 5 10.04 10.29 2.38 10.29"/><polygon class="cls-1" points="8.85 7.46 9.5 6.75 12.5 9.75 12.5 10.5 9.5 10.5 8.7 9.18 9.55 8.54 8.85 7.46"/><circle class="cls-1" cx="10" cy="4" r="1"/><polygon class="cls-2" points="14 4 14 12 4 12 4 13 15 13 15 12 15 4 14 4"/></g></g></g></svg>