<svg xmlns="http://www.w3.org/2000/svg" viewBox="0 0 16 16"><defs><style>.cls-1{fill:#999;}.cls-2{opacity:0.5;}</style></defs><title>sewer</title><g id="Layer_2" data-name="Layer 2"><g id="icons"><g id="sewer"><path class="cls-1" d="M7,8V5H1V9a6,6,0,0,0,6,6h4V9H8A1,1,0,0,1,7,8Z"/><g class="cls-2"><path class="cls-1" d="M15.5,8h-3a.5.5,0,0,0-.5.5v7a.5.5,0,0,0,.5.5h3a.5.5,0,0,0,.5-.5v-7A.5.5,0,0,0,15.5,8ZM15,12H14V11h1Zm0-2H13V9h2Z"/></g><g class="cls-2"><path class="cls-1" d="M7.5,0H.5A.5.5,0,0,0,0,.5v3A.5.5,0,0,0,.5,4h7A.5.5,0,0,0,8,3.5V.5A.5.5,0,0,0,7.5,0ZM5,2H4V1H5ZM7,3H6V1H7Z"/></g></g></g></g></svg>