<svg xmlns="http://www.w3.org/2000/svg" viewBox="0 0 16 15.68"><defs><style>.cls-1,.cls-2{fill:#999;}.cls-2{opacity:0.5;}</style></defs><title>plans</title><g id="Layer_2" data-name="Layer 2"><g id="icons"><g id="plans"><path class="cls-1" d="M7.85,0,.17,4.38a.35.35,0,0,0,0,.6L7.85,9.32a.27.27,0,0,0,.3,0L15.83,5a.35.35,0,0,0,0-.6L8.15,0A.32.32,0,0,0,7.85,0Z"/><path class="cls-2" d="M14.31,6.84,8.15,10.32a.27.27,0,0,1-.3,0L1.69,6.84.17,7.7a.35.35,0,0,0,0,.6l7.68,4.34a.27.27,0,0,0,.3,0L15.83,8.3a.35.35,0,0,0,0-.6Z"/><path class="cls-1" d="M14.59,10l-1,.57.76.43L8,14.58,1.67,11l.76-.43-1-.57-1.24.7a.35.35,0,0,0,0,.6l7.68,4.34a.3.3,0,0,0,.3,0l7.68-4.34a.35.35,0,0,0,0-.6Z"/></g></g></g></svg>