<svg xmlns="http://www.w3.org/2000/svg" viewBox="0 0 15.08 17"><defs><style>.cls-1{opacity:0.5;}.cls-2{fill:#999;}</style></defs><title>poetry</title><g id="Layer_2" data-name="Layer 2"><g id="icons"><g id="poetry"><g class="cls-1"><path class="cls-2" d="M5.49,12.07l-2.3-.62L7,11.33c1.22-.53,2.35-.89,3.22-1.34L5.13,8.6l5.07-.15L12,8.39A11.31,11.31,0,0,0,12.9,7L8.08,5.73l5.59-.17A14.84,14.84,0,0,0,14.81,2c-3.58,0-12,1.53-12.75,12h0A8.41,8.41,0,0,1,5.49,12.07Z"/></g><path class="cls-2" d="M.56,17a.5.5,0,0,1-.5-.44c0-.29-.72-7.07,3.47-11.92C6,1.74,9.75.18,14.56,0a.5.5,0,0,1,.52.48A.5.5,0,0,1,14.6,1c-4.53.17-8,1.61-10.31,4.3C.38,9.82,1.05,16.38,1.05,16.45A.5.5,0,0,1,.61,17Z"/></g></g></g></svg>