<svg xmlns="http://www.w3.org/2000/svg" viewBox="0 0 18 13"><defs><style>.cls-1,.cls-2{fill:#999;}.cls-1{opacity:0.5;}</style></defs><title>politics</title><g id="Layer_2" data-name="Layer 2"><g id="icons"><g id="politics"><rect class="cls-1" y="5" width="1" height="3" rx="0.5" ry="0.5"/><path class="cls-1" d="M13,12.5a.5.5,0,0,1-1,0V.5a.5.5,0,0,1,1,0Z"/><path class="cls-2" d="M11,1.38,2,5.23V7.77l1.28.55v0A2.51,2.51,0,0,0,4.64,11.6a2.61,2.61,0,0,0,.94.18,2.51,2.51,0,0,0,2.29-1.5L11,11.62Zm-5.42,9.4A1.55,1.55,0,0,1,5,10.67a1.49,1.49,0,0,1-.82-2h0L7,9.89A1.49,1.49,0,0,1,5.58,10.78Z"/><path class="cls-2" d="M16.49,2.74a.49.49,0,0,0-.77.08v0a.49.49,0,0,0,.07.58A4.44,4.44,0,0,1,17,6.5a4.49,4.49,0,0,1-1.23,3.09.49.49,0,0,0-.07.58v0a.49.49,0,0,0,.77.08,5.44,5.44,0,0,0,0-7.53Z"/><path class="cls-2" d="M15,6.5a2.37,2.37,0,0,1-.39,1.31.49.49,0,0,0,0,.51l0,0a.51.51,0,0,0,.41.24.49.49,0,0,0,.41-.22,3.4,3.4,0,0,0,0-3.71.5.5,0,0,0-.85,0,.53.53,0,0,0,0,.53A2.44,2.44,0,0,1,15,6.5Z"/></g></g></g></svg>