<svg xmlns="http://www.w3.org/2000/svg" viewBox="0 0 13 14"><defs><style>.cls-1{fill:#999;}</style></defs><title>wishlist</title><g id="Layer_2" data-name="Layer 2"><g id="icons"><g id="wishlist"><path class="cls-1" d="M.5,8v5.5A.5.5,0,0,0,1,14H5.5V8Z"/><path class="cls-1" d="M7.5,8v6H12a.5.5,0,0,0,.5-.5V8Z"/><path class="cls-1" d="M0,5.5V7H5.5V5H.5A.5.5,0,0,0,0,5.5Z"/><path class="cls-1" d="M7.5,5V7H13V5.5a.5.5,0,0,0-.5-.5Z"/><path class="cls-1" d="M2.5,1C3.12,1,4,1.94,4.74,3H2.5a1,1,0,0,1,0-2m0-1a2,2,0,0,0,0,4h4s-2-4-4-4Z"/><path class="cls-1" d="M10.5,1a1,1,0,0,1,0,2H8.26C9,1.94,9.88,1,10.5,1m0-1c-2,0-4,4-4,4h4a2,2,0,0,0,0-4Z"/></g></g></g></svg>