<svg xmlns="http://www.w3.org/2000/svg" viewBox="0 0 16 18"><defs><style>.cls-1,.cls-2{fill:#999;}.cls-1{opacity:0.5;}</style></defs><title>prize</title><g id="Layer_2" data-name="Layer 2"><g id="icons"><g id="prize"><polygon class="cls-1" points="11 4 10 4 6 4 5 4 3.31 4 3.46 6 12.54 6 12.69 4 11 4"/><path class="cls-2" d="M15,1H12.89a1,1,0,0,0-1-1H4.09a1,1,0,0,0-1,1H1A1.11,1.11,0,0,0,0,2.3L.62,7a2.14,2.14,0,0,0,2,2H3.72A4.46,4.46,0,0,0,8,13a4.46,4.46,0,0,0,4.28-4h1.07a2.14,2.14,0,0,0,2-2L16,2.3A1.11,1.11,0,0,0,15,1Zm-.58,5.91a1.16,1.16,0,0,1-1,1.09h-1l.08-1H3.54l.08,1h-1a1.16,1.16,0,0,1-1-1.09L1,2.18A.5.5,0,0,1,1,2H3.15l.08,1h9.54l.08-1H15a.24.24,0,0,1,.05.18Z"/><path class="cls-2" d="M12,17a3,3,0,0,1-3-3v-.1A5.47,5.47,0,0,1,8,14a5.47,5.47,0,0,1-1-.1V14a3,3,0,0,1-3,3,1,1,0,0,0-1,1H13A1,1,0,0,0,12,17Z"/></g></g></g></svg>