<svg xmlns="http://www.w3.org/2000/svg" viewBox="0 0 15.01 17.6"><defs><style>.cls-1,.cls-2{fill:#999;}.cls-2{opacity:0.5;}</style></defs><title>psychology</title><g id="Layer_2" data-name="Layer 2"><g id="icons"><g id="psychology"><path class="cls-1" d="M7.7,1a6.91,6.91,0,0,1,1.16.1C13,1.79,14.07,4.67,14,7s-2,5.31-2.09,5.94a3.08,3.08,0,0,0,.18,1.43l-4.43,2a6.54,6.54,0,0,0-1.5-1.78c-.41-.34-2.16-.4-2.85-.56a1.26,1.26,0,0,1-1-.76c-.09-.28.25-.74.22-1s-.3-.31-.36-.47.06-.31.05-.44S2,11.18,2,11.1s.18-.53,0-.93-1-.38-1-.68S2.25,7.38,2.45,6.57c.09-.37,0-1,.06-1.53A5.23,5.23,0,0,1,7.7,1m0-1A6.25,6.25,0,0,0,1.52,4.88a6.64,6.64,0,0,0,0,1,3.78,3.78,0,0,1,0,.48A10.23,10.23,0,0,1,.71,7.83C.14,8.8-.09,9.21,0,9.72a1.44,1.44,0,0,0,1,1,1.8,1.8,0,0,0,0,.49,1,1,0,0,0,.12.39,1.29,1.29,0,0,0,.08.53,1,1,0,0,0,.19.31,1.62,1.62,0,0,0-.07,1.08A2.18,2.18,0,0,0,3.1,14.92a9.34,9.34,0,0,0,1.06.16,8.92,8.92,0,0,1,1.41.24,5.07,5.07,0,0,1,1.19,1.4l.42.88.89-.39,4.44-2,.87-.39L13,14a2,2,0,0,1-.14-.89c0-.09.23-.51.39-.84A14.06,14.06,0,0,0,15,7c0-1.38-.28-5.93-6-6.87A8.83,8.83,0,0,0,7.7,0Z"/><path class="cls-2" d="M5.17,8.64a3.2,3.2,0,0,0,4.51,0,2.67,2.67,0,0,0,0-3.77,2.13,2.13,0,0,0-3,0,1.62,1.62,0,0,0-.41,1.54.52.52,0,0,0,.38.38.51.51,0,0,0,.51-.14h0a.5.5,0,0,0,.13-.49.51.51,0,0,1,.14-.52,1.05,1.05,0,0,1,1.5,0,1.59,1.59,0,0,1,0,2.25,2.13,2.13,0,0,1-3,0,2.66,2.66,0,0,1,0-3.76,3.19,3.19,0,0,1,4.52,0,3.74,3.74,0,0,1,.16,5.1.24.24,0,0,0,0,.34l.35.35a.29.29,0,0,0,.23.09.33.33,0,0,0,.23-.1,4.8,4.8,0,0,0-.23-6.53,4.26,4.26,0,0,0-6,0A3.74,3.74,0,0,0,5.17,8.64Z"/></g></g></g></svg>