<svg xmlns="http://www.w3.org/2000/svg" viewBox="0 0 12.75 15"><defs><style>.cls-1,.cls-2{fill:#999;}.cls-2{opacity:0.5;}</style></defs><title>bags</title><g id="Layer_2" data-name="Layer 2"><g id="icons"><g id="bags"><path class="cls-1" d="M3.56,3A3,3,0,0,1,9.19,3h1A4,4,0,0,0,2.52,3Z"/><rect class="cls-1" x="2.38" y="4" width="1" height="1"/><rect class="cls-1" x="9.38" y="4" width="1" height="1"/><path class="cls-1" d="M12.7,11.29,12.1,8H.65l-.6,3.29A3.12,3.12,0,0,0,.86,14h11A3.12,3.12,0,0,0,12.7,11.29Z"/><path class="cls-1" d="M11.38,4h-3V5a1,1,0,0,1-1,1h-2a1,1,0,0,1-1-1V4h-3L.83,7H11.92Z"/><path class="cls-2" d="M.86,14a3.1,3.1,0,0,0,2.28,1H9.61a3.1,3.1,0,0,0,2.28-1Z"/></g></g></g></svg>