<svg xmlns="http://www.w3.org/2000/svg" viewBox="0 0 16 16"><defs><style>.cls-1{fill:#999;}</style></defs><title>question</title><g id="Layer_2" data-name="Layer 2"><g id="icons"><path id="question" class="cls-1" d="M8,0a8,8,0,1,0,8,8A8,8,0,0,0,8,0ZM8,14a1,1,0,1,1,1-1A1,1,0,0,1,8,14Zm2.72-7.38-1.55,2a1.63,1.63,0,0,0-.28,1v.5h0a.87.87,0,0,1-1.74,0h0V9.53a3.54,3.54,0,0,1,.08-.83A1.92,1.92,0,0,1,7.58,8L9.11,6a1.52,1.52,0,0,0,.41-.92A1.39,1.39,0,0,0,9.05,4a1.59,1.59,0,0,0-1-.37A1.52,1.52,0,0,0,7,4a1.67,1.67,0,0,0-.49,1.37h0a.87.87,0,0,1-1.73,0h0V5.07a2.84,2.84,0,0,1,1-2.19A3.24,3.24,0,0,1,8,2a3.49,3.49,0,0,1,2.29.82,2.88,2.88,0,0,1,1,2.26A2.43,2.43,0,0,1,10.72,6.64Z"/></g></g></svg>