<svg xmlns="http://www.w3.org/2000/svg" viewBox="0 0 18 18"><defs><style>.cls-1{fill:#999;}</style></defs><title>quotes</title><g id="Layer_2" data-name="Layer 2"><g id="icons"><g id="quotes"><path class="cls-1" d="M2,4,3,2V0L.36,3.52A1.83,1.83,0,0,0,0,4.61V7A1,1,0,0,0,1,8H3A1,1,0,0,0,4,7V5A1,1,0,0,0,3,4Z"/><path class="cls-1" d="M7,4,8,2V0L5.36,3.52A1.83,1.83,0,0,0,5,4.61V7A1,1,0,0,0,6,8H8A1,1,0,0,0,9,7V5A1,1,0,0,0,8,4Z"/><path class="cls-1" d="M16,14l-1,2v2l2.64-3.52A1.83,1.83,0,0,0,18,13.39V11a1,1,0,0,0-1-1H15a1,1,0,0,0-1,1v2a1,1,0,0,0,1,1Z"/><path class="cls-1" d="M11,14l-1,2v2l2.64-3.52A1.83,1.83,0,0,0,13,13.39V11a1,1,0,0,0-1-1H10a1,1,0,0,0-1,1v2a1,1,0,0,0,1,1Z"/></g></g></g></svg>