<svg xmlns="http://www.w3.org/2000/svg" viewBox="0 0 12 18"><defs><style>.cls-1,.cls-2{fill:#999;}.cls-2{opacity:0.5;}</style></defs><title>receipts</title><g id="Layer_2" data-name="Layer 2"><g id="icons"><g id="receipts"><path class="cls-1" d="M10,2,8,0,6,2,4,0,2,2,0,0V18l2-2,2,2,2-2,2,2,2-2,2,2V0ZM1,4H7V5H1ZM9,4h2V5H9ZM9,6h2V7H9ZM9,8h2V9H9ZM1,6H5V7H1ZM1,8H6V9H1Zm10,6H7V12h4Z"/><rect class="cls-2" x="9" y="4" width="2" height="1"/><rect class="cls-2" x="9" y="6" width="2" height="1"/><rect class="cls-2" x="9" y="8" width="2" height="1"/></g></g></g></svg>