<svg xmlns="http://www.w3.org/2000/svg" viewBox="0 0 18.66 18.72"><defs><style>.cls-1,.cls-2{fill:#999;}.cls-2{opacity:0.5;}</style></defs><title>rick</title><g id="Layer_2" data-name="Layer 2"><g id="icons"><g id="rick"><path class="cls-1" d="M12.62,7.22a.5.5,0,0,1-.5.5h-5a.51.51,0,0,1-.5-.5.5.5,0,0,1,.5-.5h5A.5.5,0,0,1,12.62,7.22Z"/><path class="cls-1" d="M7.62,8.36A1.57,1.57,0,1,0,9.2,9.93,1.57,1.57,0,0,0,7.62,8.36Zm-.28,2.07a.5.5,0,0,1,0-1,.5.5,0,0,1,0,1Z"/><path class="cls-1" d="M11.62,8.36A1.57,1.57,0,1,0,13.2,9.93,1.57,1.57,0,0,0,11.62,8.36Zm.56,2.07a.5.5,0,0,1,0-1,.5.5,0,0,1,0,1Z"/><path class="cls-1" d="M7.34,14.64a.26.26,0,0,1-.25-.25.25.25,0,0,1,.24-.25L12.17,14a.27.27,0,0,1,.26.24.25.25,0,0,1-.24.26l-4.84.17Z"/><path class="cls-1" d="M18.66,10.22,16.06,9l2-3.16-3.5-.64,1-3.33-4.08.83L10.38,0l-2,2.72L3.47.28l1.25,5L0,6l3.75,4.22L1.16,11.53,3.91,14,3,16.72H5.65A5,5,0,0,0,14,16.15l3.69-1.43-2.13-2.5Zm-5,3.77h0a4,4,0,0,1-7.95,0l-.18,0a1.43,1.43,0,0,1,0-2.85l.15,0V8.72a4,4,0,1,1,8,0v2.42a1.43,1.43,0,0,1,0,2.85Z"/><path class="cls-1" d="M9.67,13.39a.56.56,0,0,1-.59-.55V11.22a.25.25,0,0,1,.5,0v1.62l.09.05a.13.13,0,0,0,.13-.14V11.22a.25.25,0,0,1,.25-.25.25.25,0,0,1,.25.25v1.53A.64.64,0,0,1,9.67,13.39Z"/><path class="cls-2" d="M9.81,14.3H8.67v1a.38.38,0,0,0,.38.38.27.27,0,0,0,.28-.27v-.12A.27.27,0,0,1,9.6,15a.21.21,0,0,1,.21.21v.95a.48.48,0,0,0,.48.48.51.51,0,0,0,.51-.51V14.3Z"/></g></g></g></svg>