<svg xmlns="http://www.w3.org/2000/svg" viewBox="0 0 18 16"><defs><style>.cls-1,.cls-2{fill:#a0a0a0;}.cls-1{opacity:0.5;}</style></defs><title>rodents</title><g id="Layer_2" data-name="Layer 2"><g id="icons"><g id="rodents"><path class="cls-1" d="M6.75,16h1.5a.25.25,0,0,0,.25-.25V14h-2v1.75A.25.25,0,0,0,6.75,16Z"/><path class="cls-1" d="M9.5,14v1.75a.25.25,0,0,0,.25.25h1.5a.25.25,0,0,0,.25-.25V14Z"/><path class="cls-2" d="M16.5,11H14.65A6,6,0,0,0,15,9V8a.68.68,0,0,0,0-.14,4,4,0,1,0-4.53-5.67,5.63,5.63,0,0,0-2.9,0A4,4,0,1,0,3,7.86.68.68,0,0,0,3,8V9a6,6,0,0,0,.35,2H1.5a.5.5,0,0,0,0,1H3.81a5.8,5.8,0,0,0,.34.52l-1.86.77a.5.5,0,0,0-.28.65.5.5,0,0,0,.66.27l2.17-.89a6,6,0,0,0,8.32,0l2.17.89a.5.5,0,0,0,.66-.27.5.5,0,0,0-.28-.65l-1.86-.77a5.8,5.8,0,0,0,.34-.52H16.5a.5.5,0,0,0,0-1ZM5,10A1,1,0,1,1,6,9,1,1,0,0,1,5,10ZM3.37,6.93A3,3,0,1,1,6.93,3.37,6,6,0,0,0,3.37,6.93ZM9,14a2.28,2.28,0,0,1-2-2c0-.77,1.46-.95,2-1H9c.54,0,2,.22,2,1A2.28,2.28,0,0,1,9,14Zm4-4a1,1,0,1,1,1-1A1,1,0,0,1,13,10ZM11.07,3.37a3,3,0,1,1,3.56,3.56A6,6,0,0,0,11.07,3.37Z"/></g></g></g></svg>