<svg xmlns="http://www.w3.org/2000/svg" viewBox="0 0 17.96 16.3"><defs><style>.cls-1{fill:#999;}</style></defs><title>rubberDuck</title><g id="Layer_2" data-name="Layer 2"><g id="icons"><path id="rubberDuck" class="cls-1" d="M16.31,6.65l-1-1a.25.25,0,0,0-.42.14c-.11.86-.5,2.47-2,2.47H9.59a4,4,0,0,0-.65-6.45H9l-.65-.43C7.75.78,7,.05,6.63,0c-.17,0-.09.15-.06.44A1.52,1.52,0,0,0,6,.3c-.26,0,.19.36.19,1.07v0A4,4,0,0,0,3.06,4.46a3.54,3.54,0,0,1-.9.06C1.23,4.49.05,3.94,0,4.38S0,7.09,3.64,7.53a4,4,0,0,0,1,1A4,4,0,0,0,6,16.3h6.35a5.66,5.66,0,0,0,4-9.65ZM6,3.3a1,1,0,1,1-1,1A1,1,0,0,1,6,3.3Zm1.5,12a.5.5,0,0,1-.5-.5.51.51,0,0,1,.5-.5C12.87,14.3,13,10,13,9.8a.51.51,0,0,1,.5-.49h0A.49.49,0,0,1,14,9.8C14,9.86,13.89,15.3,7.46,15.3Z"/></g></g></svg>