<svg xmlns="http://www.w3.org/2000/svg" viewBox="0 0 16.99 16"><defs><style>.cls-1{fill:#999;}</style></defs><title>ruby</title><g id="Layer_2" data-name="Layer 2"><g id="icons"><path id="ruby" class="cls-1" d="M17,5.45a.5.5,0,0,0,0-.17l0,0v0l-3-5s0,0,0,0a.4.4,0,0,0-.15-.14l-.05,0a.46.46,0,0,0-.2,0H3.5a.46.46,0,0,0-.21.05l0,0a.5.5,0,0,0-.15.14s0,0,0,0l-3,5v0a0,0,0,0,1,0,0,.5.5,0,0,0,0,.17.29.29,0,0,0,0,.09.52.52,0,0,0,.1.27l8,10h0a.44.44,0,0,0,.15.12h0a.41.41,0,0,0,.19,0h0a.41.41,0,0,0,.19,0h0a.44.44,0,0,0,.15-.12h0l8-10a.52.52,0,0,0,.1-.27A.29.29,0,0,0,17,5.45Zm-6.42,6.68L9.86,13l2.33-7h3.26ZM1.54,6H4.8l2.33,7-.69-.87Zm9.59,0L8.5,13.92,5.86,6ZM6.2,5,8.5,1.42,10.79,5ZM9.41,1H12.8L11.64,4.47ZM5.35,4.47,4.19,1H7.58Zm-2-2.78L4.47,5H1.38ZM12.52,5l1.11-3.31,2,3.31Z"/></g></g></svg>