<svg xmlns="http://www.w3.org/2000/svg" viewBox="0 0 16 16.25"><defs><style>.cls-1{opacity:0.5;}.cls-2{fill:#999;}</style></defs><title>school</title><g id="Layer_2" data-name="Layer 2"><g id="icons"><g class="cls-1"><rect class="cls-2" x="8" y="0.25" width="3" height="2"/></g><path class="cls-2" d="M15,15.25v-8H12v-2h1v-1H8.25v-4a.25.25,0,0,0-.5,0v4H3v1H4v2H1v8H0v1H16v-1ZM5,13a.25.25,0,0,1-.25.25H2.25A.25.25,0,0,1,2,13V11.5a.25.25,0,0,1,.25-.25h2.5A.25.25,0,0,1,5,11.5Zm0-3a.25.25,0,0,1-.25.25H2.25A.25.25,0,0,1,2,10V8.5a.25.25,0,0,1,.25-.25h2.5A.25.25,0,0,1,5,8.5Zm5,5.25H6v-3a2,2,0,0,1,4,0Zm-2-6a2,2,0,1,1,2-2A2,2,0,0,1,8,9.25ZM14,13a.25.25,0,0,1-.25.25h-2.5A.25.25,0,0,1,11,13V11.5a.25.25,0,0,1,.25-.25h2.5a.25.25,0,0,1,.25.25Zm0-3a.25.25,0,0,1-.25.25h-2.5A.25.25,0,0,1,11,10V8.5a.25.25,0,0,1,.25-.25h2.5A.25.25,0,0,1,14,8.5Z"/></g></g></svg>