<svg xmlns="http://www.w3.org/2000/svg" viewBox="0 0 20 16.5"><defs><style>.cls-1,.cls-2{fill:#999;}.cls-1{opacity:0.5;}</style></defs><title>scifi</title><g id="Layer_2" data-name="Layer 2"><g id="icons"><g id="scifi"><path class="cls-1" d="M5.61,10.14c.84,1,2.48,1.36,4.39,1.36s3.55-.39,4.39-1.36A25.82,25.82,0,0,1,10,10.5,25.82,25.82,0,0,1,5.61,10.14Z"/><rect class="cls-2" x="6" y="12.5" width="1" height="2" rx="0.5" ry="0.5"/><rect class="cls-2" x="6" y="15.5" width="1" height="1" rx="0.5" ry="0.5"/><rect class="cls-2" x="8" y="14.5" width="1" height="2" rx="0.5" ry="0.5"/><rect class="cls-2" x="8" y="12.5" width="1" height="1" rx="0.5" ry="0.5"/><rect class="cls-2" x="11" y="12.5" width="1" height="3" rx="0.5" ry="0.5"/><rect class="cls-2" x="13" y="12.5" width="1" height="2" rx="0.5" ry="0.5"/><rect class="cls-2" x="13" y="15.5" width="1" height="1" rx="0.5" ry="0.5"/><path class="cls-2" d="M6.78,5A.54.54,0,0,0,7,5a.5.5,0,0,0,.45-.28C8.24,3.14,9,3,9,3A.5.5,0,0,0,9,2c-.13,0-1.34.06-2.45,2.28A.51.51,0,0,0,6.78,5Z"/><path class="cls-2" d="M15.17,4c0-.1-.05-.2-.08-.3h0A5.5,5.5,0,0,0,10,0,5.5,5.5,0,0,0,4.91,3.72c0,.1,0,.2-.08.3C1.94,4.63,0,5.73,0,7s2.29,2.57,5.61,3.14A25.82,25.82,0,0,0,10,10.5a25.82,25.82,0,0,0,4.39-.36C17.71,9.57,20,8.38,20,7S18.06,4.63,15.17,4Zm-9.32.05A4.51,4.51,0,0,1,10,1a4.51,4.51,0,0,1,4.15,3.07A5.54,5.54,0,0,1,14.5,6v.19a.26.26,0,0,1-.18.22,16.24,16.24,0,0,1-8.64,0,.26.26,0,0,1-.18-.22V6A5.54,5.54,0,0,1,5.85,4.07ZM3.5,7.82a.5.5,0,1,1,.5-.5A.5.5,0,0,1,3.5,7.82Zm3,1a.5.5,0,1,1,.5-.5A.5.5,0,0,1,6.5,8.82Zm3.5.5a.5.5,0,1,1,.5-.5A.5.5,0,0,1,10,9.32Zm3.5-.5a.5.5,0,1,1,.5-.5A.5.5,0,0,1,13.5,8.82Zm3-1a.5.5,0,1,1,.5-.5A.5.5,0,0,1,16.5,7.82Z"/></g></g></g></svg>