<svg xmlns="http://www.w3.org/2000/svg" viewBox="0 0 13.27 16"><defs><style>.cls-1,.cls-2{fill:#a0a0a0;}.cls-2{opacity:0.5;}</style></defs><title>science</title><g id="Layer_2" data-name="Layer 2"><g id="icons"><g id="science"><path class="cls-1" d="M7.63,2V5.25l.13.23,4.38,8a1,1,0,0,1,0,1,1,1,0,0,1-.86.49H2a1,1,0,0,1-.86-.49,1,1,0,0,1,0-1l4.39-8,.12-.23V2h2m1-1h-4V5L.25,13A2,2,0,0,0,2,16h9.26A2,2,0,0,0,13,13L8.63,5V1Z"/><rect class="cls-1" x="3.63" width="6" height="2" rx="1" ry="1"/><circle class="cls-2" cx="5.14" cy="10.11" r="1"/><circle class="cls-2" cx="7.13" cy="7.5" r="0.5"/><path class="cls-2" d="M9.63,11h0a1.51,1.51,0,0,0-1.31-.78c-.76,0-1.2.6-1.48,1.3C6.61,12.06,5.92,13,5,13a1.87,1.87,0,0,1-1.11-.37A.94.94,0,0,0,2.54,13L2,14h9.3Z"/></g></g></g></svg>