<svg xmlns="http://www.w3.org/2000/svg" viewBox="0 0 18 8.83"><defs><style>.cls-1,.cls-2{fill:#999;}.cls-1{opacity:0.5;}</style></defs><title>shoes</title><g id="Layer_2" data-name="Layer 2"><g id="icons"><g id="shoes"><path class="cls-1" d="M0,7.83a1.06,1.06,0,0,0,1.12,1H17.2c.8,0,.8-1,.8-1Z"/><path class="cls-2" d="M18,6.83a3.56,3.56,0,0,0-1-2.35,4.18,4.18,0,0,0-1.91-1l-1.72-.61c-.1,0-.19-.06-.29-.09l-4,4.06Z"/><path class="cls-2" d="M10.9,1.86l-5,5H7.47l4.47-4.5C11.58,2.18,11.24,2,10.9,1.86Z"/><path class="cls-1" d="M10,1.2,4.25,6.83H5.86l5-5A7.44,7.44,0,0,1,10,1.2Z"/><path class="cls-1" d="M13.08,2.77a11.19,11.19,0,0,1-1.14-.44L7.47,6.83H9.09Z"/><path class="cls-1" d="M1.45,1.58c-.07-.15-.32-.13-.34,0L.75,3.53a5.94,5.94,0,0,0,1.74-.88A2,2,0,0,1,1.45,1.58Z"/><path class="cls-2" d="M8.85,0A.51.51,0,0,0,8.31.2,5.27,5.27,0,0,1,5,2.83a4.75,4.75,0,0,1-1.15.11A7,7,0,0,1,.55,4.64L.12,6.83H4.25L10,1.2C9.82,1.11,8.85,0,8.85,0Z"/></g></g></g></svg>