<svg xmlns="http://www.w3.org/2000/svg" viewBox="0 0 18 18"><defs><style>.cls-1,.cls-2{fill:#999;}.cls-1{opacity:0.5;}</style></defs><title>groceries</title><g id="Layer_2" data-name="Layer 2"><g id="icons"><g id="groceries"><path class="cls-1" d="M6,14a2,2,0,1,0,2,2A2,2,0,0,0,6,14Zm0,3a1,1,0,1,1,1-1A1,1,0,0,1,6,17Z"/><path class="cls-1" d="M14,14a2,2,0,1,0,2,2A2,2,0,0,0,14,14Zm0,3a1,1,0,1,1,1-1A1,1,0,0,1,14,17Z"/><path class="cls-2" d="M15.5,11a.49.49,0,0,0,.48-.38l2-8a.48.48,0,0,0-.09-.43A.49.49,0,0,0,17.5,2H3.26L3,.42A.5.5,0,0,0,2.5,0H.5A.5.5,0,0,0,0,.5.5.5,0,0,0,.5,1H2.08L4,12.58A.5.5,0,0,0,4.5,13h11a.5.5,0,0,0,0-1H4.92l-.16-1ZM12,7v3H8.06V7ZM8.06,6V3H12V6Zm7,4H13V7h2.89Zm1-4H13V3h3.89Zm-9-3V6H3.92l-.5-3Zm-3,4h3v3H4.59Z"/></g></g></g></svg>