<svg xmlns="http://www.w3.org/2000/svg" viewBox="0 0 18.26 18.26"><defs><style>.cls-1{fill:#999;}.cls-2{opacity:0.5;}</style></defs><title>skateboard</title><g id="Layer_2" data-name="Layer 2"><g id="icons"><path class="cls-1" d="M1.67,16.56H.5a.5.5,0,0,1-.5-.5.5.5,0,0,1,.5-.5H1.67a3.49,3.49,0,0,0,2.48-1L14.53,4.15a3.49,3.49,0,0,0,1-2.48V.5a.5.5,0,0,1,.5-.5.5.5,0,0,1,.5.5V1.67a4.47,4.47,0,0,1-1.32,3.18L4.85,15.24A4.47,4.47,0,0,1,1.67,16.56Z"/><g class="cls-2"><polygon class="cls-1" points="6.16 13.94 6.16 15.35 5.45 14.64 4.74 15.35 6.16 16.76 6.86 16.06 6.86 13.23 6.16 13.94"/></g><g class="cls-2"><polygon class="cls-1" points="13.94 6.16 15.35 6.16 14.64 5.45 15.35 4.74 16.76 6.16 16.06 6.86 13.23 6.86 13.94 6.16"/></g><path class="cls-1" d="M5.8,15.7a1.51,1.51,0,0,0,0,2.12A1.5,1.5,0,0,0,7.92,15.7,1.51,1.51,0,0,0,5.8,15.7Zm1.42,1.42a.5.5,0,0,1-.71-.71.5.5,0,0,1,.71,0A.51.51,0,0,1,7.22,17.12Z"/><path class="cls-1" d="M15.7,5.8a1.51,1.51,0,0,0,0,2.12A1.5,1.5,0,0,0,17.82,5.8,1.51,1.51,0,0,0,15.7,5.8Zm1.42,1.42a.51.51,0,0,1-.71,0,.5.5,0,0,1,0-.71.5.5,0,0,1,.71.71Z"/></g></g></svg>