<svg xmlns="http://www.w3.org/2000/svg" viewBox="0 0 18.17 18.26"><defs><style>.cls-1,.cls-2{fill:#a0a0a0;}.cls-1{opacity:0.5;}</style></defs><title>pipe</title><g id="Layer_2" data-name="Layer 2"><g id="icons"><g id="pipe"><path class="cls-1" d="M17.66,0a.51.51,0,0,0-.5.44c-1.18.47-4.39,2-5.95,4.83l0,.08a4.33,4.33,0,0,0,1.93,1,8.81,8.81,0,0,1,4.49-5.09c.34-.17.49-.35.53-.5v0s0,0,0-.06a.53.53,0,0,0,0-.12A.51.51,0,0,0,17.66,0Z"/><path class="cls-2" d="M10.71,6.25C9.38,9,8,14.77,6.89,14.88c-.71.07-.57-.55-.54-2.44a17.13,17.13,0,0,0-.21-2.2c0-.55-1.35-1-3-1s-3,.45-3,1a9.94,9.94,0,0,0,1,6.41c1,1.49,2.85,1.69,4.76,1.59,3.08-.16,4.44-2.06,5.09-4.87.46-2,1.41-5.06,1.75-6.13A4.37,4.37,0,0,1,10.71,6.25ZM3.14,10.87c-1.36,0-2.46-.29-2.46-.65s1.1-.65,2.46-.65,2.45.29,2.45.65S4.49,10.87,3.14,10.87Z"/></g></g></g></svg>