<svg xmlns="http://www.w3.org/2000/svg" viewBox="0 0 16 15.62"><defs><style>.cls-1{fill:#a0a0a0;}</style></defs><title>soccer</title><g id="Layer_2" data-name="Layer 2"><g id="icons"><g id="soccer"><path class="cls-1" d="M10.72,8.35l1.53.5,2.41-1.74,1.34,1a8,8,0,0,0-1.58-4.85l-.51,1.58h-3L10,6.11Z"/><path class="cls-1" d="M11.94,9.8l-1.53-.49L8.5,10.69v1.62l2.41,1.74-.51,1.57h.07a8,8,0,0,0,4-3H12.86Z"/><path class="cls-1" d="M7.5,10.69,5.6,9.31,4.06,9.8l-.92,2.83H1.48a8,8,0,0,0,4.12,3l-.5-1.57,2.4-1.74Z"/><path class="cls-1" d="M5.87,4.22l1,1.31H9.18l1-1.31L9.21,1.39l1.33-1a7.94,7.94,0,0,0-5,0l-.07,0,1.33,1Z"/><path class="cls-1" d="M1.34,7.11,3.75,8.85l1.54-.5L6,6.11l-.94-1.3h-3L1.58,3.24A8,8,0,0,0,0,8.08Z"/></g></g></g></svg>