<svg xmlns="http://www.w3.org/2000/svg" viewBox="0 0 16 16"><defs><style>.cls-1{fill:#999;}</style></defs><title>sport</title><g id="Layer_2" data-name="Layer 2"><g id="icons"><g id="sport"><path class="cls-1" d="M2.71,2,5.15,4.45A7.46,7.46,0,0,0,7,.07,8,8,0,0,0,2.71,2Z"/><path class="cls-1" d="M4.45,5.15,2,2.71A8,8,0,0,0,.07,7,7.46,7.46,0,0,0,4.45,5.15Z"/><path class="cls-1" d="M13.28,14l-2.43-2.44A7.44,7.44,0,0,0,9,15.93,8,8,0,0,0,13.28,14Z"/><path class="cls-1" d="M11.55,10.85,14,13.28A8,8,0,0,0,15.93,9,7.44,7.44,0,0,0,11.55,10.85Z"/><path class="cls-1" d="M8.71,8l2.14,2.14A8.49,8.49,0,0,1,16,8a8,8,0,0,0-2-5.3Z"/><path class="cls-1" d="M7.29,8,5.15,5.86A8.49,8.49,0,0,1,0,8a8,8,0,0,0,2,5.29Z"/><path class="cls-1" d="M8,0A8.49,8.49,0,0,1,5.86,5.15L8,7.29,13.28,2A8,8,0,0,0,8,0Z"/><path class="cls-1" d="M8,16a8.49,8.49,0,0,1,2.13-5.15L8,8.71,2.71,14A8,8,0,0,0,8,16Z"/></g></g></g></svg>