<svg xmlns="http://www.w3.org/2000/svg" viewBox="0 0 12 18.25"><defs><style>.cls-1{opacity:0.5;}.cls-2{fill:#999;}</style></defs><title>starWars</title><g id="Layer_2" data-name="Layer 2"><g id="icons"><g id="starwars"><g class="cls-1"><path class="cls-2" d="M6.5,2.54a.25.25,0,0,1-.25-.25v-2a.25.25,0,0,1,.5,0v2A.25.25,0,0,1,6.5,2.54Z"/></g><g class="cls-1"><path class="cls-2" d="M5.5,3a.25.25,0,0,1-.25-.25v-1a.25.25,0,0,1,.5,0v1A.25.25,0,0,1,5.5,3Z"/></g><path class="cls-2" d="M6,2.25A4,4,0,0,0,2,5.84a.5.5,0,0,0,.38.51l1.68.42a8,8,0,0,0,3.84,0L9.6,6.35A.5.5,0,0,0,10,5.84,4,4,0,0,0,6,2.25Zm0,3a1,1,0,1,1,1-1A1,1,0,0,1,6,5.25Zm1.5,1a.5.5,0,1,1,.5-.5A.5.5,0,0,1,7.5,6.25Z"/><g class="cls-1"><path class="cls-2" d="M5,9.25a2,2,0,1,1-2,2,2,2,0,0,1,2-2m0-1a3,3,0,1,0,3,3,3,3,0,0,0-3-3Z"/></g><g class="cls-1"><path class="cls-2" d="M.3,14.12a6,6,0,0,0,2.56,3.23A6.05,6.05,0,0,0,2.3,16,4,4,0,0,0,.3,14.12Z"/></g><g class="cls-1"><path class="cls-2" d="M9.3,14.79a3.71,3.71,0,0,0-.74,2.88A6,6,0,0,0,12,13C11.26,12.76,10.13,13.51,9.3,14.79Z"/></g><g class="cls-1"><path class="cls-2" d="M9.48,7.38,9,7.49a4.83,4.83,0,0,0,.66,2,3.66,3.66,0,0,0,2.24,1.94A6,6,0,0,0,9.48,7.38Z"/></g><path class="cls-2" d="M11.94,11.44A3.66,3.66,0,0,1,9.7,9.5a4.83,4.83,0,0,1-.66-2l-1.12.28a8,8,0,0,1-3.84,0L2.51,7.38A6,6,0,0,0,0,12.25a6.1,6.1,0,0,0,.3,1.87A4,4,0,0,1,2.3,16a6.05,6.05,0,0,1,.56,1.35,5.93,5.93,0,0,0,5.7.32,3.71,3.71,0,0,1,.74-2.88c.83-1.28,2-2,2.65-1.81a5.84,5.84,0,0,0,.05-.73A7,7,0,0,0,11.94,11.44ZM5,14.25a3,3,0,1,1,3-3A3,3,0,0,1,5,14.25Z"/></g></g></g></svg>