<svg xmlns="http://www.w3.org/2000/svg" viewBox="0 0 14 14"><defs><style>.cls-1{fill:#999;}</style></defs><title>sun</title><g id="Layer_2" data-name="Layer 2"><g id="icons"><g id="sun"><path class="cls-1" d="M2.26,5.34l1,.41a3.81,3.81,0,0,1,.27-.66l-.94-.41Z"/><path class="cls-1" d="M7,3a4.23,4.23,0,0,1,.5,0V0h-1V3A4,4,0,0,1,7,3Z"/><path class="cls-1" d="M2.47,9.18l1-.4a3.81,3.81,0,0,1-.27-.66l-1,.39Z"/><path class="cls-1" d="M8.92,3.47l.4-.92-.66-.29-.39.92A3.79,3.79,0,0,1,8.92,3.47Z"/><path class="cls-1" d="M11.74,8.66l-1-.41a4.76,4.76,0,0,1-.29.65l1,.42Z"/><path class="cls-1" d="M10.18,4.54l2.13-2.13-.7-.7L9.47,3.83A4,4,0,0,1,10.18,4.54Z"/><path class="cls-1" d="M11.53,4.83l-.94.37a4.42,4.42,0,0,1,.25.67l.95-.38Z"/><path class="cls-1" d="M5.86,3.15l-.37-.94-.66.26.37.94A3.77,3.77,0,0,1,5.86,3.15Z"/><path class="cls-1" d="M9.42,10.14l2.17,2.17.71-.7L10.13,9.43A4,4,0,0,1,9.42,10.14Z"/><path class="cls-1" d="M8.11,10.79l.4,1,.67-.26-.4-1A3.58,3.58,0,0,1,8.11,10.79Z"/><path class="cls-1" d="M7,11a4.57,4.57,0,0,1-.52-.05V14h1V10.91A3.71,3.71,0,0,1,7,11Z"/><path class="cls-1" d="M4.55,3.83,2.41,1.69l-.7.71L3.84,4.54A4.34,4.34,0,0,1,4.55,3.83Z"/><path class="cls-1" d="M11,6.51c0,.15,0,.29,0,.45a4.89,4.89,0,0,1,0,.55h3v-1Z"/><path class="cls-1" d="M5.11,10.46l-.43,1,.66.28.43-1A3.85,3.85,0,0,1,5.11,10.46Z"/><path class="cls-1" d="M3,7a3.75,3.75,0,0,1,.05-.47H0v1H3.07A3.07,3.07,0,0,1,3,7Z"/><path class="cls-1" d="M3.87,9.41,1.69,11.59l.71.71,2.18-2.18A4.34,4.34,0,0,1,3.87,9.41Z"/><circle class="cls-1" cx="7.01" cy="6.96" r="3"/></g></g></g></svg>