<svg xmlns="http://www.w3.org/2000/svg" viewBox="0 0 14 14"><defs><style>.cls-1,.cls-2{fill:#999;}.cls-2{opacity:0.5;}</style></defs><title>tech</title><g id="Layer_2" data-name="Layer 2"><g id="icons"><g id="tech"><path class="cls-1" d="M11.5,2a.5.5,0,0,1,.5.5v9a.5.5,0,0,1-.5.5h-9a.5.5,0,0,1-.5-.5v-9A.5.5,0,0,1,2.5,2h9m0-1h-9A1.5,1.5,0,0,0,1,2.5v9A1.5,1.5,0,0,0,2.5,13h9A1.5,1.5,0,0,0,13,11.5v-9A1.5,1.5,0,0,0,11.5,1Z"/><rect class="cls-1" y="4" width="2" height="1"/><rect class="cls-1" y="6" width="2" height="1"/><rect class="cls-1" y="8" width="2" height="1"/><rect class="cls-1" y="10" width="2" height="1"/><rect class="cls-1" x="13" y="5" width="1" height="1"/><rect class="cls-1" x="13" y="3" width="1" height="1" rx="0.02" ry="0.02"/><rect class="cls-1" x="13" y="7" width="1" height="1"/><rect class="cls-1" x="13" y="9" width="1" height="1"/><rect class="cls-1" x="4" y="13" width="1" height="1" transform="translate(-9 18) rotate(-90)"/><rect class="cls-1" x="6" y="13" width="1" height="1" transform="translate(-7 20) rotate(-90)"/><rect class="cls-1" x="8" y="13" width="1" height="1" transform="translate(-5 22) rotate(-90)"/><rect class="cls-1" x="10" y="13" width="1" height="1" transform="translate(-3 24) rotate(-90)"/><rect class="cls-1" x="2.5" y="0.5" width="2" height="1" transform="translate(2.5 4.5) rotate(-90)"/><rect class="cls-1" x="4.5" y="0.5" width="2" height="1" transform="translate(4.5 6.5) rotate(-90)"/><rect class="cls-1" x="6.5" y="0.5" width="2" height="1" transform="translate(6.5 8.5) rotate(-90)"/><rect class="cls-1" x="8.5" y="0.5" width="2" height="1" transform="translate(8.5 10.5) rotate(-90)"/><rect class="cls-2" x="4" y="4" width="6" height="6"/></g></g></g></svg>