<svg xmlns="http://www.w3.org/2000/svg" viewBox="0 0 18.03 16.96"><defs><style>.cls-1,.cls-2{fill:#999;}.cls-2{opacity:0.5;}</style></defs><title>theater</title><g id="Layer_2" data-name="Layer 2"><g id="icons"><g id="theater"><path class="cls-1" d="M7.81,0,7.18.08A16.36,16.36,0,0,0,1.28,2l-.56.3A1.41,1.41,0,0,0,.18,4.18,20.12,20.12,0,0,1,1.57,7.73c.69,2.48,3.4,5,6,4.17l.13,0c2.62-.83,3.42-4.52,2.54-7a19,19,0,0,1-.84-3.56A1.41,1.41,0,0,0,7.81,0ZM2.45,6.22a.49.49,0,0,1-.2-.66L2.52,5a1.27,1.27,0,0,1,1.71-.55l.53.28a.47.47,0,0,1,.2.65.44.44,0,0,1-.28.24.48.48,0,0,1-.37,0l-.53-.27a.3.3,0,0,0-.4.12L3.11,6A.49.49,0,0,1,2.45,6.22Zm6,.45a.47.47,0,0,1,.2.65A3.23,3.23,0,0,1,6.79,9.11,3.26,3.26,0,0,1,4.26,8.7a.48.48,0,0,1-.21-.65.5.5,0,0,1,.66-.21c1.44.75,2.3.48,3.05-1A.5.5,0,0,1,8.42,6.67Zm.25-2.42a.47.47,0,0,1-.28.24.48.48,0,0,1-.37,0l-.53-.28a.31.31,0,0,0-.4.13l-.27.53a.48.48,0,0,1-.66.2A.47.47,0,0,1,6,4.39l.27-.53a1.27,1.27,0,0,1,1.71-.54l.52.28A.47.47,0,0,1,8.67,4.25Z"/><path class="cls-2" d="M17.26,7l-.57-.28a16.27,16.27,0,0,0-5.37-1.56,10.8,10.8,0,0,1,.16,2.18,5.82,5.82,0,0,1-.2,1.44l-.26,1s-.14.34-.22.5A4.76,4.76,0,0,1,8,12.81l-.12,0-.19.05a4.48,4.48,0,0,0,2.92,3.9l.13,0c2.82.77,5.67-2.29,6-5a5.43,5.43,0,0,1,.95-2.64A1.44,1.44,0,0,0,17.26,7Zm-3.55,7.56a.48.48,0,0,1-.37,0,.51.51,0,0,1-.3-.22c-.8-1.42-1.67-1.66-3.09-.85a.49.49,0,0,1-.66-.18.5.5,0,0,1,.18-.67c1.91-1.08,3.34-.69,4.42,1.22A.49.49,0,0,1,13.71,14.53Zm1.86-3.64-.59,0a1.53,1.53,0,0,1-.43,0,1.18,1.18,0,0,1-.49-.27,1.27,1.27,0,0,1-.44-.87l0-.59A.49.49,0,0,1,14,8.64a.5.5,0,0,1,.52.45l0,.59a.31.31,0,0,0,.32.28l.59,0a.49.49,0,1,1,.07,1Z"/></g></g></g></svg>