<svg xmlns="http://www.w3.org/2000/svg" viewBox="0 0 16 18"><defs><style>.cls-1,.cls-2{fill:#a0a0a0;}.cls-2{opacity:0.5;}</style></defs><title>toc</title><g id="Layer_2" data-name="Layer 2"><g id="icons"><g id="toc"><rect class="cls-1" width="7" height="3" rx="0.5" ry="0.5"/><rect class="cls-1" x="5" y="5" width="7" height="3" rx="0.5" ry="0.5"/><rect class="cls-1" x="5" y="10" width="7" height="3" rx="0.5" ry="0.5"/><rect class="cls-1" x="5" y="15" width="7" height="3" rx="0.5" ry="0.5"/><rect class="cls-2" x="14" y="11" width="2" height="1"/><rect class="cls-2" x="14" y="16" width="2" height="1"/><rect class="cls-2" x="14" y="6" width="2" height="1"/><rect class="cls-2" x="14" y="1" width="2" height="1"/><polygon class="cls-2" points="6 12 6 11 3 11 3 7 5 7 5 6 3 6 3 3 2 3 2 17 3 17 5 17 5 16 3 16 3 12 6 12"/></g></g></g></svg>