<svg xmlns="http://www.w3.org/2000/svg" viewBox="0 0 14 14"><defs><style>.cls-1{fill:#999;}</style></defs><title>todo</title><g id="Layer_2" data-name="Layer 2"><g id="icons"><g id="todo"><path class="cls-1" d="M12.25,1a.76.76,0,0,1,.75.75v10.5a.76.76,0,0,1-.75.75H1.75A.76.76,0,0,1,1,12.25V1.75A.76.76,0,0,1,1.75,1h10.5m0-1H1.75A1.75,1.75,0,0,0,0,1.75v10.5A1.75,1.75,0,0,0,1.75,14h10.5A1.75,1.75,0,0,0,14,12.25V1.75A1.75,1.75,0,0,0,12.25,0Z"/><polygon class="cls-1" points="6 11 3 7 6 8 11 3 6 11"/></g></g></g></svg>