<svg xmlns="http://www.w3.org/2000/svg" viewBox="0 0 17.34 16.63"><defs><style>.cls-1,.cls-2{fill:#999;}.cls-2{opacity:0.5;}</style></defs><title>tools</title><g id="Layer_2" data-name="Layer 2"><g id="icons"><g id="tools"><path class="cls-1" d="M4.82,10.07l5.25-5.25a2.5,2.5,0,0,0,2.67-.56,2.46,2.46,0,0,0,.7-2.11l-1,1.05A1,1,0,0,1,11,3.2l-.71-.71a1,1,0,0,1,0-1.41L11.32,0a2.52,2.52,0,0,0-2.11.7A2.5,2.5,0,0,0,8.65,3.4L3.4,8.65a2.5,2.5,0,0,0-2.68.56A2.52,2.52,0,0,0,0,11.32l1.06-1.05a1,1,0,0,1,1.41,0L3.2,11a1,1,0,0,1,0,1.41l-1.05,1a2.46,2.46,0,0,0,2.11-.7A2.5,2.5,0,0,0,4.82,10.07Z"/><polygon class="cls-2" points="10.98 13.1 8.86 10.98 5.32 14.51 5.32 15.93 6.03 16.63 7.44 16.63 10.98 13.1"/><rect class="cls-2" x="9.48" y="10.48" width="3" height="1" transform="translate(10.98 -4.55) rotate(45)"/><polygon class="cls-1" points="12.39 10.27 11.68 9.56 14.51 6.73 14.87 5.67 16.63 4.61 17.34 5.32 16.28 7.09 15.22 7.44 12.39 10.27"/></g></g></g></svg>