<svg xmlns="http://www.w3.org/2000/svg" viewBox="0 0 14 14"><defs><style>.cls-1{fill:#999;}</style></defs><title>travel</title><g id="Layer_2" data-name="Layer 2"><g id="icons"><g id="travel"><path class="cls-1" d="M8.19,3.37c3.2-3.2,4.89-3.8,5.56-3.12s.08,2.36-3.12,5.56S3.51,11.72,2.9,11.1,5,6.57,8.19,3.37Z"/><polygon class="cls-1" points="0.43 1.99 6.38 6.17 9.32 3.05 1.21 1.21 0.43 1.99"/><polygon class="cls-1" points="0 9.66 3.26 10.74 6.03 7.97 0.77 8.88 0 9.66"/><polygon class="cls-1" points="12.02 13.57 7.83 7.62 10.95 4.68 12.79 12.79 12.02 13.57"/><polygon class="cls-1" points="4.34 14 3.26 10.74 6.03 7.97 5.12 13.23 4.34 14"/><rect class="cls-1" x="4.77" y="1.4" width="2.05" height="2.05" rx="0.44" ry="0.44" transform="translate(3.41 -3.39) rotate(45)"/><rect class="cls-1" x="10.56" y="7.19" width="2.05" height="2.05" rx="0.36" ry="0.36" transform="translate(9.2 -5.78) rotate(45)"/></g></g></g></svg>