<svg xmlns="http://www.w3.org/2000/svg" viewBox="0 0 16 16"><defs><style>.cls-1,.cls-2{fill:#999;}.cls-1{opacity:0.5;}</style></defs><title>trekking</title><g id="Layer_2" data-name="Layer 2"><g id="icons"><g id="trekking"><path class="cls-1" d="M10.86,2.14a3,3,0,0,0-5.72,0A3,3,0,0,0,3,5V6.65a10.8,10.8,0,0,0,2,.87l1,.25A9.43,9.43,0,0,0,8,8a9.43,9.43,0,0,0,2-.23l1-.25a10.8,10.8,0,0,0,2-.87V5A3,3,0,0,0,10.86,2.14ZM8,1A2,2,0,0,1,9.72,2H6.28A2,2,0,0,1,8,1Z"/><path class="cls-2" d="M11,8.56,10,8.8A10.94,10.94,0,0,1,8,9a10.94,10.94,0,0,1-2-.2L5,8.56a11.49,11.49,0,0,1-2-.77V15a1,1,0,0,0,1,1h8a1,1,0,0,0,1-1V7.79A11.49,11.49,0,0,1,11,8.56ZM11.5,15h-7a.5.5,0,0,1-.5-.5v-2a.5.5,0,0,1,.5-.5h7a.5.5,0,0,1,.5.5v2A.5.5,0,0,1,11.5,15Z"/><rect class="cls-1" x="5" y="13" width="6" height="1"/><path class="cls-2" d="M0,14a1,1,0,0,0,1,1H2V11H0Z"/><path class="cls-1" d="M0,10H2V8A2,2,0,0,0,0,10Z"/><path class="cls-1" d="M14,8v2h2A2,2,0,0,0,14,8Z"/><path class="cls-2" d="M14,15h1a1,1,0,0,0,1-1V11H14Z"/></g></g></g></svg>