<?xml version="1.0" encoding="UTF-8"?>
<svg width="18px" height="18px" viewBox="0 0 18 18" version="1.1" xmlns="http://www.w3.org/2000/svg" xmlns:xlink="http://www.w3.org/1999/xlink">
    <!-- Generator: Sketch 49.3 (51167) - http://www.bohemiancoding.com/sketch -->
    <title>vader</title>
    <desc>Created with Sketch.</desc>
    <defs></defs>
    <g id="Page-1" stroke="none" stroke-width="1" fill="none" fill-rule="evenodd">
        <g id="vader" fill="#999999" fill-rule="nonzero">
            <path d="M8.5,0 C8.22385763,-1.69088438e-17 8,0.223857625 8,0.5 L8,0.59 C5.11539594,1.07758553 3.00296468,3.57447929 3,6.5 L-8.8817842e-16,15.5 C-8.8817842e-16,15.5 4,3.5 9,9.5 L9,0 L8.5,0 Z" id="Shape" opacity="0.5"></path>
            <path d="M15,6.5 C14.9970353,3.57447929 12.8846041,1.07758553 10,0.59 L10,0.5 C10,0.223857625 9.77614237,1.69088438e-17 9.5,0 L9,0 L9,9.5 C4,3.5 0,15.5 0,15.5 L4.49,17 C7.41226664,17.9658159 10.5677334,17.9658159 13.49,17 L18,15.5 L15,6.5 Z M7.5,16.5 L6.5,16.5 L6.5,14.5 L7.5,13.5 L7.5,16.5 Z M6,11.5 C4.9,11.5 4,11.5 4,10.01 C4,9.19 4.9,8.52 6,8.52 C7.1,8.52 8,9.17 8,10 C8,11.48 8,11.48 6,11.48 L6,11.5 Z M9.5,16.5 L8.5,16.5 L8.5,12.5 L9.5,12.5 L9.5,16.5 Z M11.5,16.5 L10.5,16.5 L10.5,13.5 L11.5,14.5 L11.5,16.5 Z M12,11.5 C10,11.5 10,11.5 10,10.01 C10,9.19 10.9,8.52 12,8.52 C13.1,8.52 14,9.19 14,10.01 C14,11.48 13.1,11.48 12,11.48 L12,11.5 Z" id="Shape"></path>
        </g>
    </g>
</svg>