<svg xmlns="http://www.w3.org/2000/svg" viewBox="0 0 15.99 16"><defs><style>.cls-1{fill:#999;}</style></defs><title>volley</title><g id="Layer_2" data-name="Layer 2"><g id="icons"><g id="volley"><path class="cls-1" d="M11.61,2.13C13,4.57,13.4,7.06,12.78,8.6a8.27,8.27,0,0,0,3-.69.45.45,0,0,1,.2,0A8,8,0,0,0,10.34.35,12.38,12.38,0,0,1,11.61,2.13Z"/><path class="cls-1" d="M12.34,9.62,12,9.6c-.32,0-.64,0-.94-.07A8.05,8.05,0,0,1,8,8.56a7.54,7.54,0,0,0-2.37,2.21C6.08,11.93,8.23,13,11.29,13A10.91,10.91,0,0,0,14,12.71a.48.48,0,0,1,.42.1,7.87,7.87,0,0,0,1.56-3.89A9.21,9.21,0,0,1,12.34,9.62Z"/><path class="cls-1" d="M7.26,3.43l.11.21a10.48,10.48,0,0,1,.46,1A8.21,8.21,0,0,1,8.5,7.69a7.38,7.38,0,0,0,3.15.89c.73-1,.58-3.36-.91-5.95A11.13,11.13,0,0,0,9.14.48.5.5,0,0,1,9,.07,8.42,8.42,0,0,0,8,0,8,8,0,0,0,4.86.64,9.3,9.3,0,0,1,7.26,3.43Z"/><path class="cls-1" d="M4.38,10.86c.06-.1.14-.19.2-.29s.31-.49.49-.71A8.13,8.13,0,0,1,7.5,7.7a7.31,7.31,0,0,0-.81-3.18C5.47,4.41,3.51,5.69,2,8.21a11.27,11.27,0,0,0-1.1,2.45.44.44,0,0,1-.32.3,8.1,8.1,0,0,0,2.54,3.37A9.52,9.52,0,0,1,4.38,10.86Z"/><path class="cls-1" d="M11.29,14C8.42,14,6,13.1,5,11.74a8.31,8.31,0,0,0-1,3,.38.38,0,0,1-.07.21,8,8,0,0,0,9.49-1.09A12.91,12.91,0,0,1,11.29,14Z"/><path class="cls-1" d="M1.14,7.69c1.43-2.37,3.37-3.92,5-4.15A8,8,0,0,0,4.06,1.28a.5.5,0,0,1-.14-.15A7.93,7.93,0,0,0,.19,9.7,11.8,11.8,0,0,1,1.14,7.69Z"/></g></g></g></svg>