<svg xmlns="http://www.w3.org/2000/svg" viewBox="0 0 14 16"><defs><style>.cls-1,.cls-2{fill:#999;}.cls-2{opacity:0.5;}</style></defs><title>waiting</title><g id="Layer_2" data-name="Layer 2"><g id="icons"><g id="waiting"><path class="cls-1" d="M13.5,15H13c-.29-3.47-1.91-6.23-4.42-6.86A.11.11,0,0,1,8.5,8V8a.11.11,0,0,1,.08-.11C11.09,7.23,12.71,4.47,13,1h.5A.5.5,0,0,0,14,.5a.5.5,0,0,0-.5-.5H.5A.5.5,0,0,0,0,.5.5.5,0,0,0,.5,1H1c.29,3.47,1.91,6.23,4.42,6.86A.11.11,0,0,1,5.5,8V8a.11.11,0,0,1-.08.11C2.91,8.77,1.29,11.53,1,15H.5a.5.5,0,0,0,0,1h13a.5.5,0,0,0,0-1ZM2,15c.27-3,1.67-5.23,3.63-5.72A1.28,1.28,0,0,0,6.5,8a1.26,1.26,0,0,0-.87-1.25C3.67,6.23,2.27,4,2,1H12c-.27,3-1.67,5.23-3.63,5.72A1.28,1.28,0,0,0,7.5,8a1.26,1.26,0,0,0,.87,1.25C10.33,9.77,11.73,12,12,15Z"/><path class="cls-2" d="M9.39,11H4.61a5.87,5.87,0,0,0-1.45,3h7.68A5.87,5.87,0,0,0,9.39,11Z"/><path class="cls-2" d="M4.61,5a2.85,2.85,0,0,0,1.26.75A2.09,2.09,0,0,1,7,6.49a2,2,0,0,1,1.12-.74A2.85,2.85,0,0,0,9.39,5Z"/></g></g></g></svg>