<svg xmlns="http://www.w3.org/2000/svg" viewBox="0 0 13.5 18"><defs><style>.cls-1{fill:#999;}</style></defs><title>watch</title><g id="Layer_2" data-name="Layer 2"><g id="icons"><path class="cls-1" d="M9.5,2h-7A2.5,2.5,0,0,0,0,4.5v9A2.5,2.5,0,0,0,2.5,16h7A2.5,2.5,0,0,0,12,13.5v-9A2.5,2.5,0,0,0,9.5,2ZM11,13.5A1.5,1.5,0,0,1,9.5,15h-7A1.5,1.5,0,0,1,1,13.5v-9A1.5,1.5,0,0,1,2.5,3h7A1.5,1.5,0,0,1,11,4.5Z"/><rect class="cls-1" x="3" width="6" height="1" rx="0.25" ry="0.25"/><rect class="cls-1" x="3" y="17" width="6" height="1" rx="0.25" ry="0.25"/><path class="cls-1" d="M13.25,5h-.5c-.14,0-.25.15-.25.34V8.66c0,.19.11.34.25.34h.5c.14,0,.25-.15.25-.34V5.34C13.5,5.15,13.39,5,13.25,5Z"/><path class="cls-1" d="M8.79,6,5.94,8.85,4.42,7.78a.5.5,0,0,0-.7.12.51.51,0,0,0,.12.7L5.71,9.91l0,0,.1,0L6,10H6l.1,0s.05,0,.08,0l.09,0,0,0L9.5,6.71A.5.5,0,0,0,8.79,6Z"/></g></g></svg>