<svg xmlns="http://www.w3.org/2000/svg" viewBox="0 0 10.03 18"><defs><style>.cls-1{opacity:0.5;}.cls-2{fill:#999;}</style></defs><title>wine</title><g id="Layer_2" data-name="Layer 2"><g id="icons"><g id="wine"><g class="cls-1"><path class="cls-2" d="M2.16,6.19a3.11,3.11,0,0,0,.23,2.37,3.16,3.16,0,0,0,5.25,0,3.16,3.16,0,0,0,.24-2.37l0-.19H2.18Z"/></g><path class="cls-2" d="M5.51,12A4.91,4.91,0,0,0,10,7L9.08.43A.51.51,0,0,0,8.58,0H1.45A.51.51,0,0,0,1,.43L0,7a4.92,4.92,0,0,0,4.5,5v4.59L1,17v1H9V17l-3.5-.44ZM1,7.11,1.88,1H8.15L9,7.11a3.34,3.34,0,0,1-.95,2.51A4.26,4.26,0,0,1,5,11,4.27,4.27,0,0,1,2,9.62,3.33,3.33,0,0,1,1,7.11Z"/></g></g></g></svg>