<svg xmlns="http://www.w3.org/2000/svg" viewBox="0 0 14 13"><defs><style>.cls-1{fill:#999;}</style></defs><title>work</title><g id="Layer_2" data-name="Layer 2"><g id="icons"><g id="work"><path class="cls-1" d="M8.75,1A.25.25,0,0,1,9,1.25V4H5V1.25A.25.25,0,0,1,5.25,1h3.5m0-1H5.25A1.25,1.25,0,0,0,4,1.25V5h6V1.25A1.25,1.25,0,0,0,8.75,0Z"/><path class="cls-1" d="M11,8.43V9.5a.5.5,0,0,1-1,0V8.57L7,9,4,8.59V9.5a.5.5,0,0,1-1,0V8.45L0,8v4a1,1,0,0,0,1,1H13a1,1,0,0,0,1-1V8Z"/><path class="cls-1" d="M1,3A1,1,0,0,0,0,4V6.8A.24.24,0,0,0,.19,7c.28.06,1.49.21,2.81.37V6.5a.5.5,0,0,1,1,0v1l3,.35,3-.35v-1a.5.5,0,0,1,1,0v.9c1.32-.15,2.49-.29,2.81-.36A.24.24,0,0,0,14,6.8V4a1,1,0,0,0-1-1Z"/></g></g></g></svg>