<svg xmlns="http://www.w3.org/2000/svg" viewBox="0 0 17.96 17.96"><defs><style>.cls-1,.cls-2{fill:#a0a0a0;}.cls-2{opacity:0.5;}</style></defs><title>world</title><g id="Layer_2" data-name="Layer 2"><g id="icons"><g id="world"><path class="cls-1" d="M16.59,4.22,13.92,4,12.65,5.31a.51.51,0,0,0-.15.35v1a.54.54,0,0,1-.14.36l-.42.41a.5.5,0,0,0-.14.35v1a.53.53,0,0,1-.15.36l-.37.37a.51.51,0,0,0-.14.45l.6,3a.47.47,0,0,1-.13.45l-1,1a.5.5,0,0,0-.12.51L11,16.48a.49.49,0,0,1-.12.51l-.95,1A9,9,0,0,0,16.59,4.22Z"/><path class="cls-1" d="M1.75,6.31a.47.47,0,0,1,.35-.15h1a.49.49,0,0,1,.36.15l.21.21a.5.5,0,0,0,.7,0l.21-.21a.47.47,0,0,1,.35-.15h1A.52.52,0,0,0,6.29,6l1-1a.53.53,0,0,0,.12-.52L7,2.92a.48.48,0,0,1,.12-.51l.34-.34a.47.47,0,0,1,.35-.15h1a.51.51,0,0,0,.36-.15l.38-.38A.52.52,0,0,0,9.64,1L9.5,0A9,9,0,0,0,.23,6.87H1a.49.49,0,0,0,.36-.15Z"/><path class="cls-1" d="M5.58,15.5a.51.51,0,0,1-.15-.35v-1a.52.52,0,0,0-.14-.36l-.42-.41A.5.5,0,0,1,4.73,13V12a.53.53,0,0,0-.15-.36L3.46,10.55a.53.53,0,0,0-.36-.15h-1a.5.5,0,0,1-.35-.14l-.42-.42A.48.48,0,0,0,1,9.69l-1,0a9,9,0,0,0,6.15,7.88V16.27A.47.47,0,0,0,6,15.92Z"/><path class="cls-2" d="M10.66,1.07l0,.24a.49.49,0,0,1-.14.43l-.18.18-.7.71-.15.14a.47.47,0,0,1-.35.15H8.69a.49.49,0,0,0-.4.21.48.48,0,0,0-.07.45l.28.85.1.29a.53.53,0,0,1-.12.52l-.22.21L6.85,6.87,6.7,7a.5.5,0,0,1-.35.14h-1A.49.49,0,0,0,5,7.31l-.26.27-.36.35a.5.5,0,0,1-.7,0l-.36-.35L3,7.31a.47.47,0,0,0-.35-.15H2.52a.47.47,0,0,0-.35.15l-.27.27-.15.14a.47.47,0,0,1-.35.15H.07q0,.39-.06.78H0l1.19,0h.39L1.9,9l.27.27a.5.5,0,0,0,.35.14h1a.51.51,0,0,1,.35.15L4,9.7l1.41,1.41.15.15a.51.51,0,0,1,.15.35v1a.54.54,0,0,0,.14.36l.27.26.15.15a.5.5,0,0,1,.14.35v1a.53.53,0,0,0,.15.36l.27.26L7,15.5a.47.47,0,0,1,.15.35v1.94A10,10,0,0,0,8.49,18l.73-.73.51-.51a.51.51,0,0,0,.12-.51L9.43,15l-.09-.29a.48.48,0,0,1,.12-.51l.22-.22.84-.85a.49.49,0,0,0,.14-.45l-.55-2.75,0-.26a.5.5,0,0,1,.13-.45L10.38,9l.27-.27a.51.51,0,0,0,.15-.35v-1A.5.5,0,0,1,10.94,7l.15-.15.27-.27a.5.5,0,0,0,.14-.35v-1a.55.55,0,0,1,.15-.36l.15-.14,1.41-1.42.16-.16A.51.51,0,0,1,13.76,3H14l1.82.13a6.17,6.17,0,0,0-.48-.54A8.94,8.94,0,0,0,10.53.14Z"/></g></g></g></svg>