<svg xmlns="http://www.w3.org/2000/svg" viewBox="0 0 18 16.64"><defs><style>.cls-1{fill:#999;}</style></defs><title>yoga</title><g id="Layer_2" data-name="Layer 2"><g id="icons"><path id="yoga" class="cls-1" d="M14.86,12.28a14.46,14.46,0,0,0,2.8-6.94A15.07,15.07,0,0,0,12,7.27,14.32,14.32,0,0,0,9,0,14.32,14.32,0,0,0,6,7.27,15.07,15.07,0,0,0,.34,5.34a14.46,14.46,0,0,0,2.8,6.94A14.93,14.93,0,0,0,0,16a15,15,0,0,0,4.35.64A14,14,0,0,0,9,16a14,14,0,0,0,4.65.64A15,15,0,0,0,18,16,14.93,14.93,0,0,0,14.86,12.28ZM4.35,15.64a15.22,15.22,0,0,1-2.73-.27A13.66,13.66,0,0,1,3.8,13l.08.08A10.67,10.67,0,0,0,7.13,15.3,11.2,11.2,0,0,1,4.35,15.64Zm.24-3.22h0a9.32,9.32,0,0,1-.67-.74,12.9,12.9,0,0,1-2.35-5.1A13.34,13.34,0,0,1,6,8.44a10.72,10.72,0,0,0,.26,1.91c.07.34.17.66.26,1a15.34,15.34,0,0,0,1.54,3.35A10.79,10.79,0,0,1,4.59,12.42ZM7.49,11c-.09-.31-.18-.63-.25-1s-.1-.48-.13-.72A8.08,8.08,0,0,1,7,8V7.92A12.4,12.4,0,0,1,9,1.74a12.4,12.4,0,0,1,2,6.18V8a8.08,8.08,0,0,1-.11,1.31c0,.24-.08.48-.13.72s-.16.65-.25,1A14,14,0,0,1,9,14.26,14,14,0,0,1,7.49,11Zm4,.34c.09-.32.19-.64.26-1A10.72,10.72,0,0,0,12,8.44a13.34,13.34,0,0,1,4.45-1.87,12.9,12.9,0,0,1-2.35,5.1,9.32,9.32,0,0,1-.67.74h0a10.79,10.79,0,0,1-3.49,2.26A15.34,15.34,0,0,0,11.46,11.33Zm-.59,4a10.67,10.67,0,0,0,3.25-2.18L14.2,13a13.66,13.66,0,0,1,2.18,2.33,15.22,15.22,0,0,1-2.73.27A11.2,11.2,0,0,1,10.87,15.3Z"/></g></g></svg>